G04 #@! TF.GenerationSoftware,KiCad,Pcbnew,(6.99.0-2815-gbbc0c61ccb)*
G04 #@! TF.CreationDate,2022-08-18T14:12:31+07:00*
G04 #@! TF.ProjectId,Training_Based,54726169-6e69-46e6-975f-42617365642e,rev?*
G04 #@! TF.SameCoordinates,Original*
G04 #@! TF.FileFunction,Soldermask,Top*
G04 #@! TF.FilePolarity,Negative*
%FSLAX46Y46*%
G04 Gerber Fmt 4.6, Leading zero omitted, Abs format (unit mm)*
G04 Created by KiCad (PCBNEW (6.99.0-2815-gbbc0c61ccb)) date 2022-08-18 14:12:31*
%MOMM*%
%LPD*%
G01*
G04 APERTURE LIST*
G04 Aperture macros list*
%AMRoundRect*
0 Rectangle with rounded corners*
0 $1 Rounding radius*
0 $2 $3 $4 $5 $6 $7 $8 $9 X,Y pos of 4 corners*
0 Add a 4 corners polygon primitive as box body*
4,1,4,$2,$3,$4,$5,$6,$7,$8,$9,$2,$3,0*
0 Add four circle primitives for the rounded corners*
1,1,$1+$1,$2,$3*
1,1,$1+$1,$4,$5*
1,1,$1+$1,$6,$7*
1,1,$1+$1,$8,$9*
0 Add four rect primitives between the rounded corners*
20,1,$1+$1,$2,$3,$4,$5,0*
20,1,$1+$1,$4,$5,$6,$7,0*
20,1,$1+$1,$6,$7,$8,$9,0*
20,1,$1+$1,$8,$9,$2,$3,0*%
G04 Aperture macros list end*
%ADD10RoundRect,0.200000X0.200000X0.275000X-0.200000X0.275000X-0.200000X-0.275000X0.200000X-0.275000X0*%
%ADD11RoundRect,0.250000X0.625000X-0.375000X0.625000X0.375000X-0.625000X0.375000X-0.625000X-0.375000X0*%
%ADD12RoundRect,0.200000X-0.275000X0.200000X-0.275000X-0.200000X0.275000X-0.200000X0.275000X0.200000X0*%
%ADD13RoundRect,0.200000X-0.200000X-0.275000X0.200000X-0.275000X0.200000X0.275000X-0.200000X0.275000X0*%
%ADD14RoundRect,0.225000X0.225000X0.250000X-0.225000X0.250000X-0.225000X-0.250000X0.225000X-0.250000X0*%
%ADD15C,1.700000*%
%ADD16RoundRect,0.150000X0.150000X-0.587500X0.150000X0.587500X-0.150000X0.587500X-0.150000X-0.587500X0*%
%ADD17R,1.700000X1.700000*%
%ADD18O,1.700000X1.700000*%
%ADD19C,1.524000*%
%ADD20R,2.300000X2.300000*%
%ADD21C,2.300000*%
%ADD22RoundRect,0.225000X0.250000X-0.225000X0.250000X0.225000X-0.250000X0.225000X-0.250000X-0.225000X0*%
%ADD23RoundRect,0.200000X0.275000X-0.200000X0.275000X0.200000X-0.275000X0.200000X-0.275000X-0.200000X0*%
%ADD24RoundRect,0.250000X-0.375000X-0.625000X0.375000X-0.625000X0.375000X0.625000X-0.375000X0.625000X0*%
%ADD25C,1.600000*%
%ADD26O,1.600000X1.600000*%
%ADD27C,3.000000*%
%ADD28RoundRect,0.250000X1.500000X0.550000X-1.500000X0.550000X-1.500000X-0.550000X1.500000X-0.550000X0*%
%ADD29R,2.000000X2.000000*%
%ADD30C,2.000000*%
%ADD31R,2.000000X3.200000*%
%ADD32C,0.800000*%
%ADD33C,6.400000*%
%ADD34RoundRect,0.150000X0.512500X0.150000X-0.512500X0.150000X-0.512500X-0.150000X0.512500X-0.150000X0*%
%ADD35C,1.500000*%
%ADD36RoundRect,0.250000X-0.625000X0.375000X-0.625000X-0.375000X0.625000X-0.375000X0.625000X0.375000X0*%
%ADD37R,1.000000X2.700000*%
%ADD38R,1.600000X1.600000*%
%ADD39C,1.000000*%
%ADD40R,2.000000X0.500000*%
%ADD41R,1.700000X2.000000*%
%ADD42RoundRect,0.250000X1.075000X-0.375000X1.075000X0.375000X-1.075000X0.375000X-1.075000X-0.375000X0*%
%ADD43R,1.500000X1.500000*%
%ADD44RoundRect,0.225000X-0.250000X0.225000X-0.250000X-0.225000X0.250000X-0.225000X0.250000X0.225000X0*%
%ADD45RoundRect,0.225000X-0.225000X-0.250000X0.225000X-0.250000X0.225000X0.250000X-0.225000X0.250000X0*%
%ADD46R,3.000000X3.000000*%
%ADD47RoundRect,0.250200X-0.649800X-0.649800X0.649800X-0.649800X0.649800X0.649800X-0.649800X0.649800X0*%
%ADD48C,1.800000*%
%ADD49R,0.700000X0.450000*%
%ADD50R,2.032000X1.727200*%
%ADD51O,2.032000X1.727200*%
G04 APERTURE END LIST*
D10*
X155689286Y-37000000D03*
X154039286Y-37000000D03*
D11*
X150578572Y-26750000D03*
X150578572Y-23950000D03*
D12*
X167721428Y-29075000D03*
X167721428Y-30725000D03*
D10*
X31425000Y-136900000D03*
X29775000Y-136900000D03*
D13*
X102575000Y-142983333D03*
X104225000Y-142983333D03*
D14*
X44625000Y-150400000D03*
X43075000Y-150400000D03*
D15*
X132817906Y-108895600D03*
X132817906Y-111435600D03*
X132817906Y-113975600D03*
X132817906Y-116515600D03*
X132817906Y-119081000D03*
X132817906Y-121621000D03*
X132817906Y-124161000D03*
X132817906Y-126701000D03*
X132817906Y-129241000D03*
X132817906Y-131781000D03*
X132817906Y-134321000D03*
X132817906Y-136861000D03*
X132817906Y-139401000D03*
X132817906Y-141941000D03*
X132817906Y-144481000D03*
X132817906Y-147021000D03*
X132817906Y-149561000D03*
X132817906Y-152101000D03*
X132817906Y-154641000D03*
X158117906Y-154641000D03*
X158117906Y-152101000D03*
X158117906Y-149561000D03*
X158117906Y-147021000D03*
X158117906Y-144481000D03*
X158117906Y-141941000D03*
X158117906Y-139401000D03*
X158117906Y-136861000D03*
X158117906Y-134321000D03*
X158117906Y-131781000D03*
X158117906Y-129241000D03*
X158117906Y-126701000D03*
X158117906Y-124161000D03*
X158117906Y-121621000D03*
X158117906Y-119081000D03*
X158117906Y-116515600D03*
X158117906Y-113975600D03*
X158117906Y-111435600D03*
X158117906Y-108895600D03*
D11*
X176292856Y-26750000D03*
X176292856Y-23950000D03*
X188050000Y-84845000D03*
X188050000Y-82045000D03*
D10*
X172832142Y-37000000D03*
X171182142Y-37000000D03*
D16*
X153914286Y-34937500D03*
X155814286Y-34937500D03*
X154864286Y-33062500D03*
D17*
X212852253Y-96612499D03*
D18*
X212852253Y-99152499D03*
X212852253Y-101692499D03*
D11*
X163435714Y-26750000D03*
X163435714Y-23950000D03*
D16*
X175342856Y-34937500D03*
X177242856Y-34937500D03*
X176292856Y-33062500D03*
D17*
X54389999Y-106549999D03*
D18*
X51849999Y-106549999D03*
X54389999Y-109089999D03*
X51849999Y-109089999D03*
D12*
X163435714Y-29075000D03*
X163435714Y-30725000D03*
D19*
X89297500Y-36150000D03*
X86757500Y-36150000D03*
X84237500Y-36150000D03*
X81687500Y-36150000D03*
D20*
X30149999Y-78404999D03*
D21*
X30150000Y-81905000D03*
D10*
X41575000Y-148800000D03*
X39925000Y-148800000D03*
D11*
X172007142Y-26750000D03*
X172007142Y-23950000D03*
D17*
X195024999Y-117074999D03*
D18*
X197564999Y-117074999D03*
X200104999Y-117074999D03*
X202644999Y-117074999D03*
X205184999Y-117074999D03*
X207724999Y-117074999D03*
X210264999Y-117074999D03*
X212804999Y-117074999D03*
D17*
X156823070Y-42199999D03*
D18*
X159363070Y-42199999D03*
X161903070Y-42199999D03*
X164443070Y-42199999D03*
X166983070Y-42199999D03*
X169523070Y-42199999D03*
X172063070Y-42199999D03*
X174603070Y-42199999D03*
D22*
X66490000Y-67175000D03*
X66490000Y-65625000D03*
D17*
X51949999Y-145859999D03*
D18*
X51949999Y-148399999D03*
X54489999Y-145859999D03*
X54489999Y-148399999D03*
X57029999Y-145859999D03*
X57029999Y-148399999D03*
X59569999Y-145859999D03*
X59569999Y-148399999D03*
X62109999Y-145859999D03*
X62109999Y-148399999D03*
D17*
X212902253Y-106312499D03*
D18*
X212902253Y-108852499D03*
X212902253Y-111392499D03*
D10*
X125625000Y-37150000D03*
X123975000Y-37150000D03*
D16*
X162485714Y-34937500D03*
X164385714Y-34937500D03*
X163435714Y-33062500D03*
D13*
X92975000Y-116525000D03*
X94625000Y-116525000D03*
D23*
X61900000Y-86409999D03*
X61900000Y-84759999D03*
D24*
X33770000Y-136900000D03*
X36570000Y-136900000D03*
D10*
X100825000Y-142983333D03*
X99175000Y-142983333D03*
D17*
X68539999Y-70149999D03*
D18*
X65999999Y-70149999D03*
X68539999Y-72689999D03*
X65999999Y-72689999D03*
X68539999Y-75229999D03*
X65999999Y-75229999D03*
D10*
X151403572Y-37000000D03*
X149753572Y-37000000D03*
D17*
X68539999Y-83879998D03*
D18*
X65999999Y-83879998D03*
X68539999Y-86419998D03*
X65999999Y-86419998D03*
D16*
X149628572Y-34937500D03*
X151528572Y-34937500D03*
X150578572Y-33062500D03*
D25*
X38870000Y-122505000D03*
D26*
X49029999Y-122504999D03*
D27*
X194250000Y-65275000D03*
X208450000Y-59275000D03*
X208450000Y-71275000D03*
X196250000Y-71275000D03*
X196250000Y-59275000D03*
D28*
X46800000Y-139200000D03*
X41400000Y-139200000D03*
D29*
X79749999Y-127349999D03*
D30*
X84750000Y-127350000D03*
X82250000Y-127350000D03*
D31*
X76649999Y-119849999D03*
X87849999Y-119849999D03*
D30*
X84750000Y-112850000D03*
X79750000Y-112850000D03*
D20*
X220349999Y-86869999D03*
D21*
X220350000Y-83370000D03*
X220350000Y-79870000D03*
D13*
X92975000Y-121605000D03*
X94625000Y-121605000D03*
D17*
X51949999Y-138209999D03*
D18*
X51949999Y-140749999D03*
X54489999Y-138209999D03*
X54489999Y-140749999D03*
X57029999Y-138209999D03*
X57029999Y-140749999D03*
X59569999Y-138209999D03*
X59569999Y-140749999D03*
X62109999Y-138209999D03*
X62109999Y-140749999D03*
D11*
X154864286Y-26750000D03*
X154864286Y-23950000D03*
D22*
X48550000Y-146775000D03*
X48550000Y-145225000D03*
D13*
X82575000Y-142983333D03*
X84225000Y-142983333D03*
D32*
X223600000Y-24000000D03*
X224302944Y-22302944D03*
X224302944Y-25697056D03*
X226000000Y-21600000D03*
D33*
X226000000Y-24000000D03*
D32*
X226000000Y-26400000D03*
X227697056Y-22302944D03*
X227697056Y-25697056D03*
X228400000Y-24000000D03*
D20*
X30632499Y-119004999D03*
D21*
X30632500Y-122505000D03*
D28*
X46800000Y-131700000D03*
X41400000Y-131700000D03*
D20*
X220349999Y-68719999D03*
D21*
X220350000Y-65220000D03*
X220350000Y-61720000D03*
D11*
X180578572Y-26750000D03*
X180578572Y-23950000D03*
D24*
X80320000Y-140600000D03*
X83120000Y-140600000D03*
D32*
X21600000Y-24000000D03*
X22302944Y-22302944D03*
X22302944Y-25697056D03*
X24000000Y-21600000D03*
D33*
X24000000Y-24000000D03*
D32*
X24000000Y-26400000D03*
X25697056Y-22302944D03*
X25697056Y-25697056D03*
X26400000Y-24000000D03*
D34*
X42337500Y-146950000D03*
X42337500Y-146000000D03*
X42337500Y-145050000D03*
X40062500Y-145050000D03*
X40062500Y-146950000D03*
D35*
X55350000Y-54750000D03*
X58750000Y-54750000D03*
D30*
X104950000Y-150000000D03*
X98450000Y-150000000D03*
X104950000Y-145500000D03*
X98450000Y-145500000D03*
D10*
X181403572Y-37000000D03*
X179753572Y-37000000D03*
D12*
X172007142Y-29075000D03*
X172007142Y-30725000D03*
D17*
X99749999Y-116524999D03*
D18*
X97209999Y-116524999D03*
X99749999Y-119064999D03*
X97209999Y-119064999D03*
X99749999Y-121604999D03*
X97209999Y-121604999D03*
X99749999Y-124144999D03*
X97209999Y-124144999D03*
X99749999Y-126684999D03*
X97209999Y-126684999D03*
D36*
X188050000Y-63895000D03*
X188050000Y-66695000D03*
D13*
X92975000Y-119065000D03*
X94625000Y-119065000D03*
D17*
X43109999Y-36549999D03*
D18*
X45649999Y-36549999D03*
X43109999Y-34009999D03*
X45649999Y-34009999D03*
D25*
X35770000Y-81329999D03*
D26*
X45929999Y-81329998D03*
D10*
X159975000Y-37000000D03*
X158325000Y-37000000D03*
D37*
X44399999Y-146049999D03*
X46599999Y-146049999D03*
D38*
X50599999Y-81329998D03*
D26*
X50599999Y-83869998D03*
X50599999Y-86409998D03*
X50599999Y-88949998D03*
X58219999Y-88949998D03*
X58219999Y-86409998D03*
X58219999Y-83869998D03*
X58219999Y-81329998D03*
D16*
X179628572Y-34937500D03*
X181528572Y-34937500D03*
X180578572Y-33062500D03*
D10*
X177117856Y-37000000D03*
X175467856Y-37000000D03*
D17*
X187274999Y-46709999D03*
D18*
X187274999Y-49249999D03*
X189814999Y-46709999D03*
X189814999Y-49249999D03*
X192354999Y-46709999D03*
X192354999Y-49249999D03*
X194894999Y-46709999D03*
X194894999Y-49249999D03*
X197434999Y-46709999D03*
X197434999Y-49249999D03*
X199974999Y-46709999D03*
X199974999Y-49249999D03*
X202514999Y-46709999D03*
X202514999Y-49249999D03*
X205054999Y-46709999D03*
X205054999Y-49249999D03*
D12*
X68100000Y-65575000D03*
X68100000Y-67225000D03*
D25*
X48980000Y-119005000D03*
D26*
X38819999Y-119004999D03*
D39*
X27475000Y-142550000D03*
X27475000Y-146950000D03*
D40*
X30174999Y-143149999D03*
X30174999Y-143949999D03*
X30174999Y-144749999D03*
X30174999Y-145549999D03*
X30174999Y-146349999D03*
D41*
X30074999Y-140299999D03*
X24624999Y-140299999D03*
X30074999Y-149199999D03*
X24624999Y-149199999D03*
D12*
X176292856Y-29075000D03*
X176292856Y-30725000D03*
D42*
X34400000Y-146000000D03*
X34400000Y-143200000D03*
D17*
X197299999Y-102712499D03*
D18*
X194759999Y-102712499D03*
X197299999Y-105252499D03*
X194759999Y-105252499D03*
D29*
X114099999Y-27999999D03*
D30*
X121700000Y-28000000D03*
D43*
X192412499Y-39587499D03*
D35*
X194952500Y-39587500D03*
X197492500Y-39587500D03*
X200032500Y-39587500D03*
X202572500Y-39587500D03*
X205112500Y-39587500D03*
X207652500Y-39587500D03*
X210192500Y-39587500D03*
X212732500Y-39587500D03*
X212732500Y-24347500D03*
X210192500Y-24347500D03*
X207652500Y-24347500D03*
X205112500Y-24347500D03*
X202572500Y-24347500D03*
X200032500Y-24347500D03*
X197492500Y-24347500D03*
X194952500Y-24347500D03*
X192412500Y-24347500D03*
D44*
X48600000Y-106550000D03*
X48600000Y-108100000D03*
D30*
X84950000Y-149999999D03*
X78450000Y-149999999D03*
X84950000Y-145499999D03*
X78450000Y-145499999D03*
D45*
X76025000Y-58775000D03*
X77575000Y-58775000D03*
D11*
X167721428Y-26750000D03*
X167721428Y-23950000D03*
D46*
X29799999Y-99799999D03*
D27*
X29800000Y-104800000D03*
X29800000Y-109800000D03*
D47*
X68375000Y-58775000D03*
D48*
X70915000Y-58775000D03*
X73455000Y-58775000D03*
D29*
X131949999Y-27999999D03*
D30*
X139550000Y-28000000D03*
D16*
X171057142Y-34937500D03*
X172957142Y-34937500D03*
X172007142Y-33062500D03*
D10*
X168546428Y-37000000D03*
X166896428Y-37000000D03*
D25*
X35770000Y-86409999D03*
D26*
X45929999Y-86409998D03*
D12*
X159150000Y-29075000D03*
X159150000Y-30725000D03*
X150578572Y-29075000D03*
X150578572Y-30725000D03*
D17*
X171599999Y-108895599D03*
D18*
X171599999Y-111435599D03*
X171599999Y-113975599D03*
X171599999Y-116515599D03*
X171599999Y-119055599D03*
X171599999Y-121595599D03*
X171599999Y-124135599D03*
X171599999Y-126675599D03*
X171599999Y-129215599D03*
X171599999Y-131755599D03*
X171599999Y-134295599D03*
X171599999Y-136835599D03*
X171599999Y-139375599D03*
X171599999Y-141915599D03*
X171599999Y-144455599D03*
X171599999Y-146995599D03*
X171599999Y-149535599D03*
X171599999Y-152075599D03*
X171599999Y-154615599D03*
D16*
X158200000Y-34937500D03*
X160100000Y-34937500D03*
X159150000Y-33062500D03*
D20*
X30149999Y-88354999D03*
D21*
X30150000Y-91855000D03*
D16*
X166771428Y-34937500D03*
X168671428Y-34937500D03*
X167721428Y-33062500D03*
D27*
X194100000Y-83425000D03*
X208300000Y-77425000D03*
X208300000Y-89425000D03*
X196100000Y-89425000D03*
X196100000Y-77425000D03*
D12*
X180578572Y-29075000D03*
X180578572Y-30725000D03*
D32*
X223600000Y-156000000D03*
X224302944Y-154302944D03*
X224302944Y-157697056D03*
X226000000Y-153600000D03*
D33*
X226000000Y-156000000D03*
D32*
X226000000Y-158400000D03*
X227697056Y-154302944D03*
X227697056Y-157697056D03*
X228400000Y-156000000D03*
D10*
X80825000Y-142983333D03*
X79175000Y-142983333D03*
D11*
X159150000Y-26750000D03*
X159150000Y-23950000D03*
D17*
X115749999Y-108895599D03*
D18*
X115749999Y-111435599D03*
X115749999Y-113975599D03*
X115749999Y-116515599D03*
X115749999Y-119055599D03*
X115749999Y-121595599D03*
X115749999Y-124135599D03*
X115749999Y-126675599D03*
X115749999Y-129215599D03*
X115749999Y-131755599D03*
X115749999Y-134295599D03*
X115749999Y-136835599D03*
X115749999Y-139375599D03*
X115749999Y-141915599D03*
X115749999Y-144455599D03*
X115749999Y-146995599D03*
X115749999Y-149535599D03*
X115749999Y-152075599D03*
X115749999Y-154615599D03*
D16*
X123850000Y-35137500D03*
X125750000Y-35137500D03*
X124800000Y-33262500D03*
D44*
X37700000Y-145125000D03*
X37700000Y-146675000D03*
D10*
X143775000Y-37150000D03*
X142125000Y-37150000D03*
D49*
X46979999Y-115149999D03*
X46979999Y-116449999D03*
X48979999Y-115799999D03*
D17*
X51949999Y-130559999D03*
D18*
X51949999Y-133099999D03*
X54489999Y-130559999D03*
X54489999Y-133099999D03*
X57029999Y-130559999D03*
X57029999Y-133099999D03*
X59569999Y-130559999D03*
X59569999Y-133099999D03*
X62109999Y-130559999D03*
X62109999Y-133099999D03*
D24*
X100320000Y-140600000D03*
X103120000Y-140600000D03*
D12*
X154864286Y-29075000D03*
X154864286Y-30725000D03*
D17*
X94609999Y-40799999D03*
D18*
X97149999Y-40799999D03*
X94609999Y-38259999D03*
X97149999Y-38259999D03*
D17*
X185009999Y-75924999D03*
D18*
X187549999Y-75924999D03*
X185009999Y-73384999D03*
X187549999Y-73384999D03*
D10*
X164260714Y-37000000D03*
X162610714Y-37000000D03*
D17*
X119349999Y-108895599D03*
D18*
X119349999Y-111435599D03*
X119349999Y-113975599D03*
X119349999Y-116515599D03*
X119349999Y-119055599D03*
X119349999Y-121595599D03*
X119349999Y-124135599D03*
X119349999Y-126675599D03*
X119349999Y-129215599D03*
X119349999Y-131755599D03*
X119349999Y-134295599D03*
X119349999Y-136835599D03*
X119349999Y-139375599D03*
X119349999Y-141915599D03*
X119349999Y-144455599D03*
X119349999Y-146995599D03*
X119349999Y-149535599D03*
X119349999Y-152075599D03*
X119349999Y-154615599D03*
D17*
X48799999Y-28124999D03*
D18*
X46259999Y-28124999D03*
X43719999Y-28124999D03*
X41179999Y-28124999D03*
D17*
X132449999Y-41139999D03*
D18*
X132449999Y-38599999D03*
X129909999Y-41139999D03*
X129909999Y-38599999D03*
D17*
X195024999Y-157174999D03*
D18*
X197564999Y-157174999D03*
X200104999Y-157174999D03*
X202644999Y-157174999D03*
X205184999Y-157174999D03*
X207724999Y-157174999D03*
X210264999Y-157174999D03*
X212804999Y-157174999D03*
D10*
X44675000Y-148800000D03*
X43025000Y-148800000D03*
D12*
X61900000Y-81329999D03*
X61900000Y-82979999D03*
D16*
X142000000Y-35137500D03*
X143900000Y-35137500D03*
X142950000Y-33262500D03*
D32*
X21600000Y-156000000D03*
X22302944Y-154302944D03*
X22302944Y-157697056D03*
X24000000Y-153600000D03*
D33*
X24000000Y-156000000D03*
D32*
X24000000Y-158400000D03*
X25697056Y-154302944D03*
X25697056Y-157697056D03*
X26400000Y-156000000D03*
D50*
X44199999Y-61139999D03*
D51*
X44199999Y-58599999D03*
X44199999Y-56059999D03*
D17*
X214699999Y-46709999D03*
D18*
X214699999Y-49249999D03*
X217239999Y-46709999D03*
X217239999Y-49249999D03*
D17*
X175249999Y-108895599D03*
D18*
X175249999Y-111435599D03*
X175249999Y-113975599D03*
X175249999Y-116515599D03*
X175249999Y-119055599D03*
X175249999Y-121595599D03*
X175249999Y-124135599D03*
X175249999Y-126675599D03*
X175249999Y-129215599D03*
X175249999Y-131755599D03*
X175249999Y-134295599D03*
X175249999Y-136835599D03*
X175249999Y-139375599D03*
X175249999Y-141915599D03*
X175249999Y-144455599D03*
X175249999Y-146995599D03*
X175249999Y-149535599D03*
X175249999Y-152075599D03*
X175249999Y-154615599D03*
M02*
