G04 #@! TF.GenerationSoftware,KiCad,Pcbnew,(6.99.0-2225-g61f71e0814)*
G04 #@! TF.CreationDate,2022-08-09T19:58:20+07:00*
G04 #@! TF.ProjectId,Training_Based,54726169-6e69-46e6-975f-42617365642e,rev?*
G04 #@! TF.SameCoordinates,Original*
G04 #@! TF.FileFunction,Legend,Bot*
G04 #@! TF.FilePolarity,Positive*
%FSLAX46Y46*%
G04 Gerber Fmt 4.6, Leading zero omitted, Abs format (unit mm)*
G04 Created by KiCad (PCBNEW (6.99.0-2225-g61f71e0814)) date 2022-08-09 19:58:20*
%MOMM*%
%LPD*%
G01*
G04 APERTURE LIST*
G04 Aperture macros list*
%AMRoundRect*
0 Rectangle with rounded corners*
0 $1 Rounding radius*
0 $2 $3 $4 $5 $6 $7 $8 $9 X,Y pos of 4 corners*
0 Add a 4 corners polygon primitive as box body*
4,1,4,$2,$3,$4,$5,$6,$7,$8,$9,$2,$3,0*
0 Add four circle primitives for the rounded corners*
1,1,$1+$1,$2,$3*
1,1,$1+$1,$4,$5*
1,1,$1+$1,$6,$7*
1,1,$1+$1,$8,$9*
0 Add four rect primitives between the rounded corners*
20,1,$1+$1,$2,$3,$4,$5,0*
20,1,$1+$1,$4,$5,$6,$7,0*
20,1,$1+$1,$6,$7,$8,$9,0*
20,1,$1+$1,$8,$9,$2,$3,0*%
G04 Aperture macros list end*
%ADD10C,0.120000*%
%ADD11C,1.700000*%
%ADD12R,1.700000X1.700000*%
%ADD13O,1.700000X1.700000*%
%ADD14C,1.524000*%
%ADD15R,2.300000X2.300000*%
%ADD16C,2.300000*%
%ADD17C,1.600000*%
%ADD18O,1.600000X1.600000*%
%ADD19C,3.000000*%
%ADD20R,2.000000X2.000000*%
%ADD21C,2.000000*%
%ADD22R,2.000000X3.200000*%
%ADD23C,0.800000*%
%ADD24C,6.400000*%
%ADD25C,1.500000*%
%ADD26R,1.600000X1.600000*%
%ADD27C,1.000000*%
%ADD28R,1.500000X1.500000*%
%ADD29R,3.000000X3.000000*%
%ADD30RoundRect,0.250200X-0.649800X-0.649800X0.649800X-0.649800X0.649800X0.649800X-0.649800X0.649800X0*%
%ADD31C,1.800000*%
%ADD32R,2.032000X1.727200*%
%ADD33O,2.032000X1.727200*%
%ADD34RoundRect,0.200000X0.275000X-0.200000X0.275000X0.200000X-0.275000X0.200000X-0.275000X-0.200000X0*%
%ADD35RoundRect,0.150000X-0.587500X-0.150000X0.587500X-0.150000X0.587500X0.150000X-0.587500X0.150000X0*%
%ADD36R,1.600000X1.800000*%
%ADD37RoundRect,0.150000X0.150000X-0.587500X0.150000X0.587500X-0.150000X0.587500X-0.150000X-0.587500X0*%
%ADD38RoundRect,0.200000X-0.275000X0.200000X-0.275000X-0.200000X0.275000X-0.200000X0.275000X0.200000X0*%
G04 APERTURE END LIST*
D10*
X194372500Y-43637258D02*
X194372500Y-43162742D01*
X195417500Y-43637258D02*
X195417500Y-43162742D01*
X191832500Y-43637258D02*
X191832500Y-43162742D01*
X192877500Y-43637258D02*
X192877500Y-43162742D01*
X183050000Y-63715000D02*
X182400000Y-63715000D01*
X183050000Y-63715000D02*
X183700000Y-63715000D01*
X183050000Y-66835000D02*
X181375000Y-66835000D01*
X183050000Y-66835000D02*
X183700000Y-66835000D01*
X186800000Y-68250000D02*
X186800000Y-63250000D01*
X189300000Y-68250000D02*
X186800000Y-68250000D01*
X189300000Y-68250000D02*
X189300000Y-63250000D01*
X204502500Y-29650000D02*
X204502500Y-30300000D01*
X204502500Y-29650000D02*
X204502500Y-29000000D01*
X207622500Y-29650000D02*
X207622500Y-31325000D01*
X207622500Y-29650000D02*
X207622500Y-29000000D01*
X183050000Y-81865000D02*
X182400000Y-81865000D01*
X183050000Y-81865000D02*
X183700000Y-81865000D01*
X183050000Y-84985000D02*
X181375000Y-84985000D01*
X183050000Y-84985000D02*
X183700000Y-84985000D01*
X200062500Y-29650000D02*
X200062500Y-30300000D01*
X200062500Y-29650000D02*
X200062500Y-29000000D01*
X203182500Y-29650000D02*
X203182500Y-31325000D01*
X203182500Y-29650000D02*
X203182500Y-29000000D01*
X186800000Y-86500000D02*
X186800000Y-81500000D01*
X189300000Y-86500000D02*
X186800000Y-86500000D01*
X189300000Y-86500000D02*
X189300000Y-81500000D01*
X196912500Y-43637258D02*
X196912500Y-43162742D01*
X197957500Y-43637258D02*
X197957500Y-43162742D01*
X179777500Y-65512258D02*
X179777500Y-65037742D01*
X180822500Y-65512258D02*
X180822500Y-65037742D01*
X186752500Y-43637258D02*
X186752500Y-43162742D01*
X187797500Y-43637258D02*
X187797500Y-43162742D01*
X189292500Y-43637258D02*
X189292500Y-43162742D01*
X190337500Y-43637258D02*
X190337500Y-43162742D01*
X216717500Y-43637258D02*
X216717500Y-43162742D01*
X217762500Y-43637258D02*
X217762500Y-43162742D01*
X185277500Y-83662258D02*
X185277500Y-83187742D01*
X186322500Y-83662258D02*
X186322500Y-83187742D01*
X185277500Y-65512258D02*
X185277500Y-65037742D01*
X186322500Y-65512258D02*
X186322500Y-65037742D01*
X201992500Y-43637258D02*
X201992500Y-43162742D01*
X203037500Y-43637258D02*
X203037500Y-43162742D01*
X180822500Y-83187742D02*
X180822500Y-83662258D01*
X179777500Y-83187742D02*
X179777500Y-83662258D01*
X214177500Y-43637258D02*
X214177500Y-43162742D01*
X215222500Y-43637258D02*
X215222500Y-43162742D01*
X204532500Y-43637258D02*
X204532500Y-43162742D01*
X205577500Y-43637258D02*
X205577500Y-43162742D01*
X199452500Y-43637258D02*
X199452500Y-43162742D01*
X200497500Y-43637258D02*
X200497500Y-43162742D01*
%LPC*%
D11*
X132817906Y-108895600D03*
X132817906Y-111435600D03*
X132817906Y-113975600D03*
X132817906Y-116515600D03*
X132817906Y-119081000D03*
X132817906Y-121621000D03*
X132817906Y-124161000D03*
X132817906Y-126701000D03*
X132817906Y-129241000D03*
X132817906Y-131781000D03*
X132817906Y-134321000D03*
X132817906Y-136861000D03*
X132817906Y-139401000D03*
X132817906Y-141941000D03*
X132817906Y-144481000D03*
X132817906Y-147021000D03*
X132817906Y-149561000D03*
X132817906Y-152101000D03*
X132817906Y-154641000D03*
X158117906Y-154641000D03*
X158117906Y-152101000D03*
X158117906Y-149561000D03*
X158117906Y-147021000D03*
X158117906Y-144481000D03*
X158117906Y-141941000D03*
X158117906Y-139401000D03*
X158117906Y-136861000D03*
X158117906Y-134321000D03*
X158117906Y-131781000D03*
X158117906Y-129241000D03*
X158117906Y-126701000D03*
X158117906Y-124161000D03*
X158117906Y-121621000D03*
X158117906Y-119081000D03*
X158117906Y-116515600D03*
X158117906Y-113975600D03*
X158117906Y-111435600D03*
X158117906Y-108895600D03*
D12*
X212852253Y-96612499D03*
D13*
X212852253Y-99152499D03*
X212852253Y-101692499D03*
D12*
X54389999Y-106549999D03*
D13*
X51849999Y-106549999D03*
X54389999Y-109089999D03*
X51849999Y-109089999D03*
D14*
X89297500Y-36150000D03*
X86757500Y-36150000D03*
X84237500Y-36150000D03*
X81687500Y-36150000D03*
D15*
X30149999Y-78404999D03*
D16*
X30150000Y-81905000D03*
D12*
X195024999Y-117074999D03*
D13*
X197564999Y-117074999D03*
X200104999Y-117074999D03*
X202644999Y-117074999D03*
X205184999Y-117074999D03*
X207724999Y-117074999D03*
X210264999Y-117074999D03*
X212804999Y-117074999D03*
D12*
X156823070Y-42199999D03*
D13*
X159363070Y-42199999D03*
X161903070Y-42199999D03*
X164443070Y-42199999D03*
X166983070Y-42199999D03*
X169523070Y-42199999D03*
X172063070Y-42199999D03*
X174603070Y-42199999D03*
D12*
X51949999Y-145859999D03*
D13*
X51949999Y-148399999D03*
X54489999Y-145859999D03*
X54489999Y-148399999D03*
X57029999Y-145859999D03*
X57029999Y-148399999D03*
X59569999Y-145859999D03*
X59569999Y-148399999D03*
X62109999Y-145859999D03*
X62109999Y-148399999D03*
D12*
X212902253Y-106312499D03*
D13*
X212902253Y-108852499D03*
X212902253Y-111392499D03*
D12*
X68539999Y-70149999D03*
D13*
X65999999Y-70149999D03*
X68539999Y-72689999D03*
X65999999Y-72689999D03*
X68539999Y-75229999D03*
X65999999Y-75229999D03*
D12*
X68539999Y-83879998D03*
D13*
X65999999Y-83879998D03*
X68539999Y-86419998D03*
X65999999Y-86419998D03*
D17*
X38870000Y-122505000D03*
D18*
X49029999Y-122504999D03*
D19*
X194250000Y-65275000D03*
X208450000Y-59275000D03*
X208450000Y-71275000D03*
X196250000Y-71275000D03*
X196250000Y-59275000D03*
D20*
X79749999Y-127349999D03*
D21*
X84750000Y-127350000D03*
X82250000Y-127350000D03*
D22*
X76649999Y-119849999D03*
X87849999Y-119849999D03*
D21*
X84750000Y-112850000D03*
X79750000Y-112850000D03*
D15*
X220349999Y-86869999D03*
D16*
X220350000Y-83370000D03*
X220350000Y-79870000D03*
D12*
X51949999Y-138209999D03*
D13*
X51949999Y-140749999D03*
X54489999Y-138209999D03*
X54489999Y-140749999D03*
X57029999Y-138209999D03*
X57029999Y-140749999D03*
X59569999Y-138209999D03*
X59569999Y-140749999D03*
X62109999Y-138209999D03*
X62109999Y-140749999D03*
D23*
X223600000Y-24000000D03*
X224302944Y-22302944D03*
X224302944Y-25697056D03*
X226000000Y-21600000D03*
D24*
X226000000Y-24000000D03*
D23*
X226000000Y-26400000D03*
X227697056Y-22302944D03*
X227697056Y-25697056D03*
X228400000Y-24000000D03*
D15*
X30632499Y-119004999D03*
D16*
X30632500Y-122505000D03*
D15*
X220349999Y-68719999D03*
D16*
X220350000Y-65220000D03*
X220350000Y-61720000D03*
D23*
X21600000Y-24000000D03*
X22302944Y-22302944D03*
X22302944Y-25697056D03*
X24000000Y-21600000D03*
D24*
X24000000Y-24000000D03*
D23*
X24000000Y-26400000D03*
X25697056Y-22302944D03*
X25697056Y-25697056D03*
X26400000Y-24000000D03*
D25*
X55350000Y-54750000D03*
X58750000Y-54750000D03*
D21*
X104950000Y-150000000D03*
X98450000Y-150000000D03*
X104950000Y-145500000D03*
X98450000Y-145500000D03*
D12*
X99749999Y-116524999D03*
D13*
X97209999Y-116524999D03*
X99749999Y-119064999D03*
X97209999Y-119064999D03*
X99749999Y-121604999D03*
X97209999Y-121604999D03*
X99749999Y-124144999D03*
X97209999Y-124144999D03*
X99749999Y-126684999D03*
X97209999Y-126684999D03*
D12*
X43109999Y-36549999D03*
D13*
X45649999Y-36549999D03*
X43109999Y-34009999D03*
X45649999Y-34009999D03*
D17*
X35770000Y-81329999D03*
D18*
X45929999Y-81329998D03*
D26*
X50599999Y-81329998D03*
D18*
X50599999Y-83869998D03*
X50599999Y-86409998D03*
X50599999Y-88949998D03*
X58219999Y-88949998D03*
X58219999Y-86409998D03*
X58219999Y-83869998D03*
X58219999Y-81329998D03*
D12*
X187274999Y-46709999D03*
D13*
X187274999Y-49249999D03*
X189814999Y-46709999D03*
X189814999Y-49249999D03*
X192354999Y-46709999D03*
X192354999Y-49249999D03*
X194894999Y-46709999D03*
X194894999Y-49249999D03*
X197434999Y-46709999D03*
X197434999Y-49249999D03*
X199974999Y-46709999D03*
X199974999Y-49249999D03*
X202514999Y-46709999D03*
X202514999Y-49249999D03*
X205054999Y-46709999D03*
X205054999Y-49249999D03*
D17*
X48980000Y-119005000D03*
D18*
X38819999Y-119004999D03*
D27*
X27475000Y-142550000D03*
X27475000Y-146950000D03*
D12*
X197299999Y-102712499D03*
D13*
X194759999Y-102712499D03*
X197299999Y-105252499D03*
X194759999Y-105252499D03*
D20*
X114099999Y-27999999D03*
D21*
X121700000Y-28000000D03*
D28*
X192412499Y-39587499D03*
D25*
X194952500Y-39587500D03*
X197492500Y-39587500D03*
X200032500Y-39587500D03*
X202572500Y-39587500D03*
X205112500Y-39587500D03*
X207652500Y-39587500D03*
X210192500Y-39587500D03*
X212732500Y-39587500D03*
X212732500Y-24347500D03*
X210192500Y-24347500D03*
X207652500Y-24347500D03*
X205112500Y-24347500D03*
X202572500Y-24347500D03*
X200032500Y-24347500D03*
X197492500Y-24347500D03*
X194952500Y-24347500D03*
X192412500Y-24347500D03*
D21*
X84950000Y-149999999D03*
X78450000Y-149999999D03*
X84950000Y-145499999D03*
X78450000Y-145499999D03*
D29*
X29799999Y-99799999D03*
D19*
X29800000Y-104800000D03*
X29800000Y-109800000D03*
D30*
X68375000Y-58775000D03*
D31*
X70915000Y-58775000D03*
X73455000Y-58775000D03*
D20*
X131949999Y-27999999D03*
D21*
X139550000Y-28000000D03*
D17*
X35770000Y-86409999D03*
D18*
X45929999Y-86409998D03*
D12*
X171599999Y-108895599D03*
D13*
X171599999Y-111435599D03*
X171599999Y-113975599D03*
X171599999Y-116515599D03*
X171599999Y-119055599D03*
X171599999Y-121595599D03*
X171599999Y-124135599D03*
X171599999Y-126675599D03*
X171599999Y-129215599D03*
X171599999Y-131755599D03*
X171599999Y-134295599D03*
X171599999Y-136835599D03*
X171599999Y-139375599D03*
X171599999Y-141915599D03*
X171599999Y-144455599D03*
X171599999Y-146995599D03*
X171599999Y-149535599D03*
X171599999Y-152075599D03*
X171599999Y-154615599D03*
D15*
X30149999Y-88354999D03*
D16*
X30150000Y-91855000D03*
D19*
X194100000Y-83425000D03*
X208300000Y-77425000D03*
X208300000Y-89425000D03*
X196100000Y-89425000D03*
X196100000Y-77425000D03*
D23*
X223600000Y-156000000D03*
X224302944Y-154302944D03*
X224302944Y-157697056D03*
X226000000Y-153600000D03*
D24*
X226000000Y-156000000D03*
D23*
X226000000Y-158400000D03*
X227697056Y-154302944D03*
X227697056Y-157697056D03*
X228400000Y-156000000D03*
D12*
X115749999Y-108895599D03*
D13*
X115749999Y-111435599D03*
X115749999Y-113975599D03*
X115749999Y-116515599D03*
X115749999Y-119055599D03*
X115749999Y-121595599D03*
X115749999Y-124135599D03*
X115749999Y-126675599D03*
X115749999Y-129215599D03*
X115749999Y-131755599D03*
X115749999Y-134295599D03*
X115749999Y-136835599D03*
X115749999Y-139375599D03*
X115749999Y-141915599D03*
X115749999Y-144455599D03*
X115749999Y-146995599D03*
X115749999Y-149535599D03*
X115749999Y-152075599D03*
X115749999Y-154615599D03*
D12*
X51949999Y-130559999D03*
D13*
X51949999Y-133099999D03*
X54489999Y-130559999D03*
X54489999Y-133099999D03*
X57029999Y-130559999D03*
X57029999Y-133099999D03*
X59569999Y-130559999D03*
X59569999Y-133099999D03*
X62109999Y-130559999D03*
X62109999Y-133099999D03*
D12*
X94609999Y-40799999D03*
D13*
X97149999Y-40799999D03*
X94609999Y-38259999D03*
X97149999Y-38259999D03*
D12*
X185009999Y-75924999D03*
D13*
X187549999Y-75924999D03*
X185009999Y-73384999D03*
X187549999Y-73384999D03*
D12*
X119349999Y-108895599D03*
D13*
X119349999Y-111435599D03*
X119349999Y-113975599D03*
X119349999Y-116515599D03*
X119349999Y-119055599D03*
X119349999Y-121595599D03*
X119349999Y-124135599D03*
X119349999Y-126675599D03*
X119349999Y-129215599D03*
X119349999Y-131755599D03*
X119349999Y-134295599D03*
X119349999Y-136835599D03*
X119349999Y-139375599D03*
X119349999Y-141915599D03*
X119349999Y-144455599D03*
X119349999Y-146995599D03*
X119349999Y-149535599D03*
X119349999Y-152075599D03*
X119349999Y-154615599D03*
D12*
X48799999Y-28124999D03*
D13*
X46259999Y-28124999D03*
X43719999Y-28124999D03*
X41179999Y-28124999D03*
D12*
X132449999Y-41139999D03*
D13*
X132449999Y-38599999D03*
X129909999Y-41139999D03*
X129909999Y-38599999D03*
D12*
X195024999Y-157174999D03*
D13*
X197564999Y-157174999D03*
X200104999Y-157174999D03*
X202644999Y-157174999D03*
X205184999Y-157174999D03*
X207724999Y-157174999D03*
X210264999Y-157174999D03*
X212804999Y-157174999D03*
D23*
X21600000Y-156000000D03*
X22302944Y-154302944D03*
X22302944Y-157697056D03*
X24000000Y-153600000D03*
D24*
X24000000Y-156000000D03*
D23*
X24000000Y-158400000D03*
X25697056Y-154302944D03*
X25697056Y-157697056D03*
X26400000Y-156000000D03*
D32*
X44199999Y-61139999D03*
D33*
X44199999Y-58599999D03*
X44199999Y-56059999D03*
D12*
X214699999Y-46709999D03*
D13*
X214699999Y-49249999D03*
X217239999Y-46709999D03*
X217239999Y-49249999D03*
D12*
X175249999Y-108895599D03*
D13*
X175249999Y-111435599D03*
X175249999Y-113975599D03*
X175249999Y-116515599D03*
X175249999Y-119055599D03*
X175249999Y-121595599D03*
X175249999Y-124135599D03*
X175249999Y-126675599D03*
X175249999Y-129215599D03*
X175249999Y-131755599D03*
X175249999Y-134295599D03*
X175249999Y-136835599D03*
X175249999Y-139375599D03*
X175249999Y-141915599D03*
X175249999Y-144455599D03*
X175249999Y-146995599D03*
X175249999Y-149535599D03*
X175249999Y-152075599D03*
X175249999Y-154615599D03*
D34*
X194895000Y-44225000D03*
X194895000Y-42575000D03*
X192355000Y-44225000D03*
X192355000Y-42575000D03*
D35*
X182112500Y-66225000D03*
X182112500Y-64325000D03*
X183987500Y-65275000D03*
D36*
X188049999Y-67249999D03*
X188049999Y-63249999D03*
D37*
X207012500Y-30587500D03*
X205112500Y-30587500D03*
X206062500Y-28712500D03*
D35*
X182112500Y-84375000D03*
X182112500Y-82475000D03*
X183987500Y-83425000D03*
D37*
X202572500Y-30587500D03*
X200672500Y-30587500D03*
X201622500Y-28712500D03*
D36*
X188049999Y-85499999D03*
X188049999Y-81499999D03*
D34*
X197435000Y-44225000D03*
X197435000Y-42575000D03*
X180300000Y-66100000D03*
X180300000Y-64450000D03*
X187275000Y-44225000D03*
X187275000Y-42575000D03*
X189815000Y-44225000D03*
X189815000Y-42575000D03*
X217240000Y-44225000D03*
X217240000Y-42575000D03*
X185800000Y-84250000D03*
X185800000Y-82600000D03*
X185800000Y-66100000D03*
X185800000Y-64450000D03*
X202515000Y-44225000D03*
X202515000Y-42575000D03*
D38*
X180300000Y-82600000D03*
X180300000Y-84250000D03*
D34*
X214700000Y-44225000D03*
X214700000Y-42575000D03*
X205055000Y-44225000D03*
X205055000Y-42575000D03*
X199975000Y-44225000D03*
X199975000Y-42575000D03*
M02*
