G04 #@! TF.GenerationSoftware,KiCad,Pcbnew,(6.99.0-2815-gbbc0c61ccb)*
G04 #@! TF.CreationDate,2022-08-18T14:12:31+07:00*
G04 #@! TF.ProjectId,Training_Based,54726169-6e69-46e6-975f-42617365642e,rev?*
G04 #@! TF.SameCoordinates,Original*
G04 #@! TF.FileFunction,Paste,Bot*
G04 #@! TF.FilePolarity,Positive*
%FSLAX46Y46*%
G04 Gerber Fmt 4.6, Leading zero omitted, Abs format (unit mm)*
G04 Created by KiCad (PCBNEW (6.99.0-2815-gbbc0c61ccb)) date 2022-08-18 14:12:31*
%MOMM*%
%LPD*%
G01*
G04 APERTURE LIST*
G04 Aperture macros list*
%AMRoundRect*
0 Rectangle with rounded corners*
0 $1 Rounding radius*
0 $2 $3 $4 $5 $6 $7 $8 $9 X,Y pos of 4 corners*
0 Add a 4 corners polygon primitive as box body*
4,1,4,$2,$3,$4,$5,$6,$7,$8,$9,$2,$3,0*
0 Add four circle primitives for the rounded corners*
1,1,$1+$1,$2,$3*
1,1,$1+$1,$4,$5*
1,1,$1+$1,$6,$7*
1,1,$1+$1,$8,$9*
0 Add four rect primitives between the rounded corners*
20,1,$1+$1,$2,$3,$4,$5,0*
20,1,$1+$1,$4,$5,$6,$7,0*
20,1,$1+$1,$6,$7,$8,$9,0*
20,1,$1+$1,$8,$9,$2,$3,0*%
G04 Aperture macros list end*
%ADD10RoundRect,0.200000X0.275000X-0.200000X0.275000X0.200000X-0.275000X0.200000X-0.275000X-0.200000X0*%
%ADD11RoundRect,0.150000X-0.587500X-0.150000X0.587500X-0.150000X0.587500X0.150000X-0.587500X0.150000X0*%
%ADD12R,1.600000X1.800000*%
%ADD13RoundRect,0.150000X0.150000X-0.587500X0.150000X0.587500X-0.150000X0.587500X-0.150000X-0.587500X0*%
%ADD14RoundRect,0.200000X-0.275000X0.200000X-0.275000X-0.200000X0.275000X-0.200000X0.275000X0.200000X0*%
G04 APERTURE END LIST*
D10*
X194895000Y-44225000D03*
X194895000Y-42575000D03*
X192355000Y-44225000D03*
X192355000Y-42575000D03*
D11*
X182112500Y-66225000D03*
X182112500Y-64325000D03*
X183987500Y-65275000D03*
D12*
X188049999Y-67249999D03*
X188049999Y-63249999D03*
D13*
X207012500Y-30587500D03*
X205112500Y-30587500D03*
X206062500Y-28712500D03*
D11*
X182112500Y-84375000D03*
X182112500Y-82475000D03*
X183987500Y-83425000D03*
D13*
X202572500Y-30587500D03*
X200672500Y-30587500D03*
X201622500Y-28712500D03*
D12*
X188049999Y-85499999D03*
X188049999Y-81499999D03*
D10*
X197435000Y-44225000D03*
X197435000Y-42575000D03*
X180300000Y-66100000D03*
X180300000Y-64450000D03*
X187275000Y-44225000D03*
X187275000Y-42575000D03*
X189815000Y-44225000D03*
X189815000Y-42575000D03*
X217240000Y-44225000D03*
X217240000Y-42575000D03*
X185800000Y-84250000D03*
X185800000Y-82600000D03*
X185800000Y-66100000D03*
X185800000Y-64450000D03*
X202515000Y-44225000D03*
X202515000Y-42575000D03*
D14*
X180300000Y-82600000D03*
X180300000Y-84250000D03*
D10*
X214700000Y-44225000D03*
X214700000Y-42575000D03*
X205055000Y-44225000D03*
X205055000Y-42575000D03*
X199975000Y-44225000D03*
X199975000Y-42575000D03*
M02*
