G04 #@! TF.GenerationSoftware,KiCad,Pcbnew,(6.99.0-2815-gbbc0c61ccb)*
G04 #@! TF.CreationDate,2022-08-18T14:12:31+07:00*
G04 #@! TF.ProjectId,Training_Based,54726169-6e69-46e6-975f-42617365642e,rev?*
G04 #@! TF.SameCoordinates,Original*
G04 #@! TF.FileFunction,AssemblyDrawing,Bot*
%FSLAX46Y46*%
G04 Gerber Fmt 4.6, Leading zero omitted, Abs format (unit mm)*
G04 Created by KiCad (PCBNEW (6.99.0-2815-gbbc0c61ccb)) date 2022-08-18 14:12:31*
%MOMM*%
%LPD*%
G01*
G04 APERTURE LIST*
%ADD10C,0.150000*%
%ADD11C,0.060000*%
%ADD12C,0.050000*%
%ADD13C,0.074930*%
%ADD14C,0.100000*%
G04 APERTURE END LIST*
D10*
X196692380Y-42757142D02*
X196216190Y-42423809D01*
X196692380Y-42185714D02*
X195692380Y-42185714D01*
X195692380Y-42185714D02*
X195692380Y-42566666D01*
X195692380Y-42566666D02*
X195740000Y-42661904D01*
X195740000Y-42661904D02*
X195787619Y-42709523D01*
X195787619Y-42709523D02*
X195882857Y-42757142D01*
X195882857Y-42757142D02*
X196025714Y-42757142D01*
X196025714Y-42757142D02*
X196120952Y-42709523D01*
X196120952Y-42709523D02*
X196168571Y-42661904D01*
X196168571Y-42661904D02*
X196216190Y-42566666D01*
X196216190Y-42566666D02*
X196216190Y-42185714D01*
X195787619Y-43138095D02*
X195740000Y-43185714D01*
X195740000Y-43185714D02*
X195692380Y-43280952D01*
X195692380Y-43280952D02*
X195692380Y-43519047D01*
X195692380Y-43519047D02*
X195740000Y-43614285D01*
X195740000Y-43614285D02*
X195787619Y-43661904D01*
X195787619Y-43661904D02*
X195882857Y-43709523D01*
X195882857Y-43709523D02*
X195978095Y-43709523D01*
X195978095Y-43709523D02*
X196120952Y-43661904D01*
X196120952Y-43661904D02*
X196692380Y-43090476D01*
X196692380Y-43090476D02*
X196692380Y-43709523D01*
X195692380Y-44566666D02*
X195692380Y-44376190D01*
X195692380Y-44376190D02*
X195740000Y-44280952D01*
X195740000Y-44280952D02*
X195787619Y-44233333D01*
X195787619Y-44233333D02*
X195930476Y-44138095D01*
X195930476Y-44138095D02*
X196120952Y-44090476D01*
X196120952Y-44090476D02*
X196501904Y-44090476D01*
X196501904Y-44090476D02*
X196597142Y-44138095D01*
X196597142Y-44138095D02*
X196644761Y-44185714D01*
X196644761Y-44185714D02*
X196692380Y-44280952D01*
X196692380Y-44280952D02*
X196692380Y-44471428D01*
X196692380Y-44471428D02*
X196644761Y-44566666D01*
X196644761Y-44566666D02*
X196597142Y-44614285D01*
X196597142Y-44614285D02*
X196501904Y-44661904D01*
X196501904Y-44661904D02*
X196263809Y-44661904D01*
X196263809Y-44661904D02*
X196168571Y-44614285D01*
X196168571Y-44614285D02*
X196120952Y-44566666D01*
X196120952Y-44566666D02*
X196073333Y-44471428D01*
X196073333Y-44471428D02*
X196073333Y-44280952D01*
X196073333Y-44280952D02*
X196120952Y-44185714D01*
X196120952Y-44185714D02*
X196168571Y-44138095D01*
X196168571Y-44138095D02*
X196263809Y-44090476D01*
D11*
X195041952Y-43142857D02*
X194851476Y-43009524D01*
X195041952Y-42914286D02*
X194641952Y-42914286D01*
X194641952Y-42914286D02*
X194641952Y-43066667D01*
X194641952Y-43066667D02*
X194661000Y-43104762D01*
X194661000Y-43104762D02*
X194680047Y-43123809D01*
X194680047Y-43123809D02*
X194718142Y-43142857D01*
X194718142Y-43142857D02*
X194775285Y-43142857D01*
X194775285Y-43142857D02*
X194813380Y-43123809D01*
X194813380Y-43123809D02*
X194832428Y-43104762D01*
X194832428Y-43104762D02*
X194851476Y-43066667D01*
X194851476Y-43066667D02*
X194851476Y-42914286D01*
X194680047Y-43295238D02*
X194661000Y-43314286D01*
X194661000Y-43314286D02*
X194641952Y-43352381D01*
X194641952Y-43352381D02*
X194641952Y-43447619D01*
X194641952Y-43447619D02*
X194661000Y-43485714D01*
X194661000Y-43485714D02*
X194680047Y-43504762D01*
X194680047Y-43504762D02*
X194718142Y-43523809D01*
X194718142Y-43523809D02*
X194756238Y-43523809D01*
X194756238Y-43523809D02*
X194813380Y-43504762D01*
X194813380Y-43504762D02*
X195041952Y-43276190D01*
X195041952Y-43276190D02*
X195041952Y-43523809D01*
X194641952Y-43866666D02*
X194641952Y-43790476D01*
X194641952Y-43790476D02*
X194661000Y-43752380D01*
X194661000Y-43752380D02*
X194680047Y-43733333D01*
X194680047Y-43733333D02*
X194737190Y-43695238D01*
X194737190Y-43695238D02*
X194813380Y-43676190D01*
X194813380Y-43676190D02*
X194965761Y-43676190D01*
X194965761Y-43676190D02*
X195003857Y-43695238D01*
X195003857Y-43695238D02*
X195022904Y-43714285D01*
X195022904Y-43714285D02*
X195041952Y-43752380D01*
X195041952Y-43752380D02*
X195041952Y-43828571D01*
X195041952Y-43828571D02*
X195022904Y-43866666D01*
X195022904Y-43866666D02*
X195003857Y-43885714D01*
X195003857Y-43885714D02*
X194965761Y-43904761D01*
X194965761Y-43904761D02*
X194870523Y-43904761D01*
X194870523Y-43904761D02*
X194832428Y-43885714D01*
X194832428Y-43885714D02*
X194813380Y-43866666D01*
X194813380Y-43866666D02*
X194794333Y-43828571D01*
X194794333Y-43828571D02*
X194794333Y-43752380D01*
X194794333Y-43752380D02*
X194813380Y-43714285D01*
X194813380Y-43714285D02*
X194832428Y-43695238D01*
X194832428Y-43695238D02*
X194870523Y-43676190D01*
D10*
X194152380Y-42757142D02*
X193676190Y-42423809D01*
X194152380Y-42185714D02*
X193152380Y-42185714D01*
X193152380Y-42185714D02*
X193152380Y-42566666D01*
X193152380Y-42566666D02*
X193200000Y-42661904D01*
X193200000Y-42661904D02*
X193247619Y-42709523D01*
X193247619Y-42709523D02*
X193342857Y-42757142D01*
X193342857Y-42757142D02*
X193485714Y-42757142D01*
X193485714Y-42757142D02*
X193580952Y-42709523D01*
X193580952Y-42709523D02*
X193628571Y-42661904D01*
X193628571Y-42661904D02*
X193676190Y-42566666D01*
X193676190Y-42566666D02*
X193676190Y-42185714D01*
X193247619Y-43138095D02*
X193200000Y-43185714D01*
X193200000Y-43185714D02*
X193152380Y-43280952D01*
X193152380Y-43280952D02*
X193152380Y-43519047D01*
X193152380Y-43519047D02*
X193200000Y-43614285D01*
X193200000Y-43614285D02*
X193247619Y-43661904D01*
X193247619Y-43661904D02*
X193342857Y-43709523D01*
X193342857Y-43709523D02*
X193438095Y-43709523D01*
X193438095Y-43709523D02*
X193580952Y-43661904D01*
X193580952Y-43661904D02*
X194152380Y-43090476D01*
X194152380Y-43090476D02*
X194152380Y-43709523D01*
X193152380Y-44614285D02*
X193152380Y-44138095D01*
X193152380Y-44138095D02*
X193628571Y-44090476D01*
X193628571Y-44090476D02*
X193580952Y-44138095D01*
X193580952Y-44138095D02*
X193533333Y-44233333D01*
X193533333Y-44233333D02*
X193533333Y-44471428D01*
X193533333Y-44471428D02*
X193580952Y-44566666D01*
X193580952Y-44566666D02*
X193628571Y-44614285D01*
X193628571Y-44614285D02*
X193723809Y-44661904D01*
X193723809Y-44661904D02*
X193961904Y-44661904D01*
X193961904Y-44661904D02*
X194057142Y-44614285D01*
X194057142Y-44614285D02*
X194104761Y-44566666D01*
X194104761Y-44566666D02*
X194152380Y-44471428D01*
X194152380Y-44471428D02*
X194152380Y-44233333D01*
X194152380Y-44233333D02*
X194104761Y-44138095D01*
X194104761Y-44138095D02*
X194057142Y-44090476D01*
D11*
X192501952Y-43142857D02*
X192311476Y-43009524D01*
X192501952Y-42914286D02*
X192101952Y-42914286D01*
X192101952Y-42914286D02*
X192101952Y-43066667D01*
X192101952Y-43066667D02*
X192121000Y-43104762D01*
X192121000Y-43104762D02*
X192140047Y-43123809D01*
X192140047Y-43123809D02*
X192178142Y-43142857D01*
X192178142Y-43142857D02*
X192235285Y-43142857D01*
X192235285Y-43142857D02*
X192273380Y-43123809D01*
X192273380Y-43123809D02*
X192292428Y-43104762D01*
X192292428Y-43104762D02*
X192311476Y-43066667D01*
X192311476Y-43066667D02*
X192311476Y-42914286D01*
X192140047Y-43295238D02*
X192121000Y-43314286D01*
X192121000Y-43314286D02*
X192101952Y-43352381D01*
X192101952Y-43352381D02*
X192101952Y-43447619D01*
X192101952Y-43447619D02*
X192121000Y-43485714D01*
X192121000Y-43485714D02*
X192140047Y-43504762D01*
X192140047Y-43504762D02*
X192178142Y-43523809D01*
X192178142Y-43523809D02*
X192216238Y-43523809D01*
X192216238Y-43523809D02*
X192273380Y-43504762D01*
X192273380Y-43504762D02*
X192501952Y-43276190D01*
X192501952Y-43276190D02*
X192501952Y-43523809D01*
X192101952Y-43885714D02*
X192101952Y-43695238D01*
X192101952Y-43695238D02*
X192292428Y-43676190D01*
X192292428Y-43676190D02*
X192273380Y-43695238D01*
X192273380Y-43695238D02*
X192254333Y-43733333D01*
X192254333Y-43733333D02*
X192254333Y-43828571D01*
X192254333Y-43828571D02*
X192273380Y-43866666D01*
X192273380Y-43866666D02*
X192292428Y-43885714D01*
X192292428Y-43885714D02*
X192330523Y-43904761D01*
X192330523Y-43904761D02*
X192425761Y-43904761D01*
X192425761Y-43904761D02*
X192463857Y-43885714D01*
X192463857Y-43885714D02*
X192482904Y-43866666D01*
X192482904Y-43866666D02*
X192501952Y-43828571D01*
X192501952Y-43828571D02*
X192501952Y-43733333D01*
X192501952Y-43733333D02*
X192482904Y-43695238D01*
X192482904Y-43695238D02*
X192463857Y-43676190D01*
D10*
X183621428Y-68137619D02*
X183716666Y-68090000D01*
X183716666Y-68090000D02*
X183811904Y-67994761D01*
X183811904Y-67994761D02*
X183954761Y-67851904D01*
X183954761Y-67851904D02*
X184049999Y-67804285D01*
X184049999Y-67804285D02*
X184145237Y-67804285D01*
X184097618Y-68042380D02*
X184192856Y-67994761D01*
X184192856Y-67994761D02*
X184288094Y-67899523D01*
X184288094Y-67899523D02*
X184335713Y-67709047D01*
X184335713Y-67709047D02*
X184335713Y-67375714D01*
X184335713Y-67375714D02*
X184288094Y-67185238D01*
X184288094Y-67185238D02*
X184192856Y-67090000D01*
X184192856Y-67090000D02*
X184097618Y-67042380D01*
X184097618Y-67042380D02*
X183907142Y-67042380D01*
X183907142Y-67042380D02*
X183811904Y-67090000D01*
X183811904Y-67090000D02*
X183716666Y-67185238D01*
X183716666Y-67185238D02*
X183669047Y-67375714D01*
X183669047Y-67375714D02*
X183669047Y-67709047D01*
X183669047Y-67709047D02*
X183716666Y-67899523D01*
X183716666Y-67899523D02*
X183811904Y-67994761D01*
X183811904Y-67994761D02*
X183907142Y-68042380D01*
X183907142Y-68042380D02*
X184097618Y-68042380D01*
X182716666Y-68042380D02*
X183288094Y-68042380D01*
X183002380Y-68042380D02*
X183002380Y-67042380D01*
X183002380Y-67042380D02*
X183097618Y-67185238D01*
X183097618Y-67185238D02*
X183192856Y-67280476D01*
X183192856Y-67280476D02*
X183288094Y-67328095D01*
X182335713Y-67137619D02*
X182288094Y-67090000D01*
X182288094Y-67090000D02*
X182192856Y-67042380D01*
X182192856Y-67042380D02*
X181954761Y-67042380D01*
X181954761Y-67042380D02*
X181859523Y-67090000D01*
X181859523Y-67090000D02*
X181811904Y-67137619D01*
X181811904Y-67137619D02*
X181764285Y-67232857D01*
X181764285Y-67232857D02*
X181764285Y-67328095D01*
X181764285Y-67328095D02*
X181811904Y-67470952D01*
X181811904Y-67470952D02*
X182383332Y-68042380D01*
X182383332Y-68042380D02*
X181764285Y-68042380D01*
D12*
X183232857Y-65423038D02*
X183263333Y-65407800D01*
X183263333Y-65407800D02*
X183293809Y-65377323D01*
X183293809Y-65377323D02*
X183339523Y-65331609D01*
X183339523Y-65331609D02*
X183370000Y-65316371D01*
X183370000Y-65316371D02*
X183400476Y-65316371D01*
X183385238Y-65392561D02*
X183415714Y-65377323D01*
X183415714Y-65377323D02*
X183446190Y-65346847D01*
X183446190Y-65346847D02*
X183461428Y-65285895D01*
X183461428Y-65285895D02*
X183461428Y-65179228D01*
X183461428Y-65179228D02*
X183446190Y-65118276D01*
X183446190Y-65118276D02*
X183415714Y-65087800D01*
X183415714Y-65087800D02*
X183385238Y-65072561D01*
X183385238Y-65072561D02*
X183324285Y-65072561D01*
X183324285Y-65072561D02*
X183293809Y-65087800D01*
X183293809Y-65087800D02*
X183263333Y-65118276D01*
X183263333Y-65118276D02*
X183248095Y-65179228D01*
X183248095Y-65179228D02*
X183248095Y-65285895D01*
X183248095Y-65285895D02*
X183263333Y-65346847D01*
X183263333Y-65346847D02*
X183293809Y-65377323D01*
X183293809Y-65377323D02*
X183324285Y-65392561D01*
X183324285Y-65392561D02*
X183385238Y-65392561D01*
X182943333Y-65392561D02*
X183126190Y-65392561D01*
X183034762Y-65392561D02*
X183034762Y-65072561D01*
X183034762Y-65072561D02*
X183065238Y-65118276D01*
X183065238Y-65118276D02*
X183095714Y-65148752D01*
X183095714Y-65148752D02*
X183126190Y-65163990D01*
X182821428Y-65103038D02*
X182806190Y-65087800D01*
X182806190Y-65087800D02*
X182775714Y-65072561D01*
X182775714Y-65072561D02*
X182699523Y-65072561D01*
X182699523Y-65072561D02*
X182669047Y-65087800D01*
X182669047Y-65087800D02*
X182653809Y-65103038D01*
X182653809Y-65103038D02*
X182638571Y-65133514D01*
X182638571Y-65133514D02*
X182638571Y-65163990D01*
X182638571Y-65163990D02*
X182653809Y-65209704D01*
X182653809Y-65209704D02*
X182836666Y-65392561D01*
X182836666Y-65392561D02*
X182638571Y-65392561D01*
D13*
X187160111Y-64978777D02*
X186860391Y-64978777D01*
X186860391Y-64978777D02*
X186860391Y-65050139D01*
X186860391Y-65050139D02*
X186874664Y-65092956D01*
X186874664Y-65092956D02*
X186903208Y-65121501D01*
X186903208Y-65121501D02*
X186931753Y-65135774D01*
X186931753Y-65135774D02*
X186988843Y-65150046D01*
X186988843Y-65150046D02*
X187031660Y-65150046D01*
X187031660Y-65150046D02*
X187088749Y-65135774D01*
X187088749Y-65135774D02*
X187117294Y-65121501D01*
X187117294Y-65121501D02*
X187145839Y-65092956D01*
X187145839Y-65092956D02*
X187160111Y-65050139D01*
X187160111Y-65050139D02*
X187160111Y-64978777D01*
X186888936Y-65264225D02*
X186874664Y-65278497D01*
X186874664Y-65278497D02*
X186860391Y-65307042D01*
X186860391Y-65307042D02*
X186860391Y-65378404D01*
X186860391Y-65378404D02*
X186874664Y-65406949D01*
X186874664Y-65406949D02*
X186888936Y-65421221D01*
X186888936Y-65421221D02*
X186917481Y-65435494D01*
X186917481Y-65435494D02*
X186946025Y-65435494D01*
X186946025Y-65435494D02*
X186988843Y-65421221D01*
X186988843Y-65421221D02*
X187160111Y-65249953D01*
X187160111Y-65249953D02*
X187160111Y-65435494D01*
D10*
X208925119Y-29078571D02*
X208877500Y-28983333D01*
X208877500Y-28983333D02*
X208782261Y-28888095D01*
X208782261Y-28888095D02*
X208639404Y-28745238D01*
X208639404Y-28745238D02*
X208591785Y-28650000D01*
X208591785Y-28650000D02*
X208591785Y-28554762D01*
X208829880Y-28602381D02*
X208782261Y-28507143D01*
X208782261Y-28507143D02*
X208687023Y-28411905D01*
X208687023Y-28411905D02*
X208496547Y-28364286D01*
X208496547Y-28364286D02*
X208163214Y-28364286D01*
X208163214Y-28364286D02*
X207972738Y-28411905D01*
X207972738Y-28411905D02*
X207877500Y-28507143D01*
X207877500Y-28507143D02*
X207829880Y-28602381D01*
X207829880Y-28602381D02*
X207829880Y-28792857D01*
X207829880Y-28792857D02*
X207877500Y-28888095D01*
X207877500Y-28888095D02*
X207972738Y-28983333D01*
X207972738Y-28983333D02*
X208163214Y-29030952D01*
X208163214Y-29030952D02*
X208496547Y-29030952D01*
X208496547Y-29030952D02*
X208687023Y-28983333D01*
X208687023Y-28983333D02*
X208782261Y-28888095D01*
X208782261Y-28888095D02*
X208829880Y-28792857D01*
X208829880Y-28792857D02*
X208829880Y-28602381D01*
X208829880Y-29983333D02*
X208829880Y-29411905D01*
X208829880Y-29697619D02*
X207829880Y-29697619D01*
X207829880Y-29697619D02*
X207972738Y-29602381D01*
X207972738Y-29602381D02*
X208067976Y-29507143D01*
X208067976Y-29507143D02*
X208115595Y-29411905D01*
X208163214Y-30840476D02*
X208829880Y-30840476D01*
X207782261Y-30602381D02*
X208496547Y-30364286D01*
X208496547Y-30364286D02*
X208496547Y-30983333D01*
D12*
X206210538Y-29467142D02*
X206195300Y-29436666D01*
X206195300Y-29436666D02*
X206164823Y-29406190D01*
X206164823Y-29406190D02*
X206119109Y-29360476D01*
X206119109Y-29360476D02*
X206103871Y-29329999D01*
X206103871Y-29329999D02*
X206103871Y-29299523D01*
X206180061Y-29314761D02*
X206164823Y-29284285D01*
X206164823Y-29284285D02*
X206134347Y-29253809D01*
X206134347Y-29253809D02*
X206073395Y-29238571D01*
X206073395Y-29238571D02*
X205966728Y-29238571D01*
X205966728Y-29238571D02*
X205905776Y-29253809D01*
X205905776Y-29253809D02*
X205875300Y-29284285D01*
X205875300Y-29284285D02*
X205860061Y-29314761D01*
X205860061Y-29314761D02*
X205860061Y-29375714D01*
X205860061Y-29375714D02*
X205875300Y-29406190D01*
X205875300Y-29406190D02*
X205905776Y-29436666D01*
X205905776Y-29436666D02*
X205966728Y-29451904D01*
X205966728Y-29451904D02*
X206073395Y-29451904D01*
X206073395Y-29451904D02*
X206134347Y-29436666D01*
X206134347Y-29436666D02*
X206164823Y-29406190D01*
X206164823Y-29406190D02*
X206180061Y-29375714D01*
X206180061Y-29375714D02*
X206180061Y-29314761D01*
X206180061Y-29756666D02*
X206180061Y-29573809D01*
X206180061Y-29665237D02*
X205860061Y-29665237D01*
X205860061Y-29665237D02*
X205905776Y-29634761D01*
X205905776Y-29634761D02*
X205936252Y-29604285D01*
X205936252Y-29604285D02*
X205951490Y-29573809D01*
X205966728Y-30030952D02*
X206180061Y-30030952D01*
X205844823Y-29954761D02*
X206073395Y-29878571D01*
X206073395Y-29878571D02*
X206073395Y-30076666D01*
D10*
X183621428Y-86287619D02*
X183716666Y-86240000D01*
X183716666Y-86240000D02*
X183811904Y-86144761D01*
X183811904Y-86144761D02*
X183954761Y-86001904D01*
X183954761Y-86001904D02*
X184049999Y-85954285D01*
X184049999Y-85954285D02*
X184145237Y-85954285D01*
X184097618Y-86192380D02*
X184192856Y-86144761D01*
X184192856Y-86144761D02*
X184288094Y-86049523D01*
X184288094Y-86049523D02*
X184335713Y-85859047D01*
X184335713Y-85859047D02*
X184335713Y-85525714D01*
X184335713Y-85525714D02*
X184288094Y-85335238D01*
X184288094Y-85335238D02*
X184192856Y-85240000D01*
X184192856Y-85240000D02*
X184097618Y-85192380D01*
X184097618Y-85192380D02*
X183907142Y-85192380D01*
X183907142Y-85192380D02*
X183811904Y-85240000D01*
X183811904Y-85240000D02*
X183716666Y-85335238D01*
X183716666Y-85335238D02*
X183669047Y-85525714D01*
X183669047Y-85525714D02*
X183669047Y-85859047D01*
X183669047Y-85859047D02*
X183716666Y-86049523D01*
X183716666Y-86049523D02*
X183811904Y-86144761D01*
X183811904Y-86144761D02*
X183907142Y-86192380D01*
X183907142Y-86192380D02*
X184097618Y-86192380D01*
X182716666Y-86192380D02*
X183288094Y-86192380D01*
X183002380Y-86192380D02*
X183002380Y-85192380D01*
X183002380Y-85192380D02*
X183097618Y-85335238D01*
X183097618Y-85335238D02*
X183192856Y-85430476D01*
X183192856Y-85430476D02*
X183288094Y-85478095D01*
X181764285Y-86192380D02*
X182335713Y-86192380D01*
X182049999Y-86192380D02*
X182049999Y-85192380D01*
X182049999Y-85192380D02*
X182145237Y-85335238D01*
X182145237Y-85335238D02*
X182240475Y-85430476D01*
X182240475Y-85430476D02*
X182335713Y-85478095D01*
D12*
X183232857Y-83573038D02*
X183263333Y-83557800D01*
X183263333Y-83557800D02*
X183293809Y-83527323D01*
X183293809Y-83527323D02*
X183339523Y-83481609D01*
X183339523Y-83481609D02*
X183370000Y-83466371D01*
X183370000Y-83466371D02*
X183400476Y-83466371D01*
X183385238Y-83542561D02*
X183415714Y-83527323D01*
X183415714Y-83527323D02*
X183446190Y-83496847D01*
X183446190Y-83496847D02*
X183461428Y-83435895D01*
X183461428Y-83435895D02*
X183461428Y-83329228D01*
X183461428Y-83329228D02*
X183446190Y-83268276D01*
X183446190Y-83268276D02*
X183415714Y-83237800D01*
X183415714Y-83237800D02*
X183385238Y-83222561D01*
X183385238Y-83222561D02*
X183324285Y-83222561D01*
X183324285Y-83222561D02*
X183293809Y-83237800D01*
X183293809Y-83237800D02*
X183263333Y-83268276D01*
X183263333Y-83268276D02*
X183248095Y-83329228D01*
X183248095Y-83329228D02*
X183248095Y-83435895D01*
X183248095Y-83435895D02*
X183263333Y-83496847D01*
X183263333Y-83496847D02*
X183293809Y-83527323D01*
X183293809Y-83527323D02*
X183324285Y-83542561D01*
X183324285Y-83542561D02*
X183385238Y-83542561D01*
X182943333Y-83542561D02*
X183126190Y-83542561D01*
X183034762Y-83542561D02*
X183034762Y-83222561D01*
X183034762Y-83222561D02*
X183065238Y-83268276D01*
X183065238Y-83268276D02*
X183095714Y-83298752D01*
X183095714Y-83298752D02*
X183126190Y-83313990D01*
X182638571Y-83542561D02*
X182821428Y-83542561D01*
X182730000Y-83542561D02*
X182730000Y-83222561D01*
X182730000Y-83222561D02*
X182760476Y-83268276D01*
X182760476Y-83268276D02*
X182790952Y-83298752D01*
X182790952Y-83298752D02*
X182821428Y-83313990D01*
D10*
X204485119Y-29078571D02*
X204437500Y-28983333D01*
X204437500Y-28983333D02*
X204342261Y-28888095D01*
X204342261Y-28888095D02*
X204199404Y-28745238D01*
X204199404Y-28745238D02*
X204151785Y-28650000D01*
X204151785Y-28650000D02*
X204151785Y-28554762D01*
X204389880Y-28602381D02*
X204342261Y-28507143D01*
X204342261Y-28507143D02*
X204247023Y-28411905D01*
X204247023Y-28411905D02*
X204056547Y-28364286D01*
X204056547Y-28364286D02*
X203723214Y-28364286D01*
X203723214Y-28364286D02*
X203532738Y-28411905D01*
X203532738Y-28411905D02*
X203437500Y-28507143D01*
X203437500Y-28507143D02*
X203389880Y-28602381D01*
X203389880Y-28602381D02*
X203389880Y-28792857D01*
X203389880Y-28792857D02*
X203437500Y-28888095D01*
X203437500Y-28888095D02*
X203532738Y-28983333D01*
X203532738Y-28983333D02*
X203723214Y-29030952D01*
X203723214Y-29030952D02*
X204056547Y-29030952D01*
X204056547Y-29030952D02*
X204247023Y-28983333D01*
X204247023Y-28983333D02*
X204342261Y-28888095D01*
X204342261Y-28888095D02*
X204389880Y-28792857D01*
X204389880Y-28792857D02*
X204389880Y-28602381D01*
X204389880Y-29983333D02*
X204389880Y-29411905D01*
X204389880Y-29697619D02*
X203389880Y-29697619D01*
X203389880Y-29697619D02*
X203532738Y-29602381D01*
X203532738Y-29602381D02*
X203627976Y-29507143D01*
X203627976Y-29507143D02*
X203675595Y-29411905D01*
X203389880Y-30316667D02*
X203389880Y-30935714D01*
X203389880Y-30935714D02*
X203770833Y-30602381D01*
X203770833Y-30602381D02*
X203770833Y-30745238D01*
X203770833Y-30745238D02*
X203818452Y-30840476D01*
X203818452Y-30840476D02*
X203866071Y-30888095D01*
X203866071Y-30888095D02*
X203961309Y-30935714D01*
X203961309Y-30935714D02*
X204199404Y-30935714D01*
X204199404Y-30935714D02*
X204294642Y-30888095D01*
X204294642Y-30888095D02*
X204342261Y-30840476D01*
X204342261Y-30840476D02*
X204389880Y-30745238D01*
X204389880Y-30745238D02*
X204389880Y-30459524D01*
X204389880Y-30459524D02*
X204342261Y-30364286D01*
X204342261Y-30364286D02*
X204294642Y-30316667D01*
D12*
X201770538Y-29467142D02*
X201755300Y-29436666D01*
X201755300Y-29436666D02*
X201724823Y-29406190D01*
X201724823Y-29406190D02*
X201679109Y-29360476D01*
X201679109Y-29360476D02*
X201663871Y-29329999D01*
X201663871Y-29329999D02*
X201663871Y-29299523D01*
X201740061Y-29314761D02*
X201724823Y-29284285D01*
X201724823Y-29284285D02*
X201694347Y-29253809D01*
X201694347Y-29253809D02*
X201633395Y-29238571D01*
X201633395Y-29238571D02*
X201526728Y-29238571D01*
X201526728Y-29238571D02*
X201465776Y-29253809D01*
X201465776Y-29253809D02*
X201435300Y-29284285D01*
X201435300Y-29284285D02*
X201420061Y-29314761D01*
X201420061Y-29314761D02*
X201420061Y-29375714D01*
X201420061Y-29375714D02*
X201435300Y-29406190D01*
X201435300Y-29406190D02*
X201465776Y-29436666D01*
X201465776Y-29436666D02*
X201526728Y-29451904D01*
X201526728Y-29451904D02*
X201633395Y-29451904D01*
X201633395Y-29451904D02*
X201694347Y-29436666D01*
X201694347Y-29436666D02*
X201724823Y-29406190D01*
X201724823Y-29406190D02*
X201740061Y-29375714D01*
X201740061Y-29375714D02*
X201740061Y-29314761D01*
X201740061Y-29756666D02*
X201740061Y-29573809D01*
X201740061Y-29665237D02*
X201420061Y-29665237D01*
X201420061Y-29665237D02*
X201465776Y-29634761D01*
X201465776Y-29634761D02*
X201496252Y-29604285D01*
X201496252Y-29604285D02*
X201511490Y-29573809D01*
X201420061Y-29863333D02*
X201420061Y-30061428D01*
X201420061Y-30061428D02*
X201541966Y-29954761D01*
X201541966Y-29954761D02*
X201541966Y-30000476D01*
X201541966Y-30000476D02*
X201557204Y-30030952D01*
X201557204Y-30030952D02*
X201572442Y-30046190D01*
X201572442Y-30046190D02*
X201602919Y-30061428D01*
X201602919Y-30061428D02*
X201679109Y-30061428D01*
X201679109Y-30061428D02*
X201709585Y-30046190D01*
X201709585Y-30046190D02*
X201724823Y-30030952D01*
X201724823Y-30030952D02*
X201740061Y-30000476D01*
X201740061Y-30000476D02*
X201740061Y-29909047D01*
X201740061Y-29909047D02*
X201724823Y-29878571D01*
X201724823Y-29878571D02*
X201709585Y-29863333D01*
D13*
X187160111Y-83228777D02*
X186860391Y-83228777D01*
X186860391Y-83228777D02*
X186860391Y-83300139D01*
X186860391Y-83300139D02*
X186874664Y-83342956D01*
X186874664Y-83342956D02*
X186903208Y-83371501D01*
X186903208Y-83371501D02*
X186931753Y-83385774D01*
X186931753Y-83385774D02*
X186988843Y-83400046D01*
X186988843Y-83400046D02*
X187031660Y-83400046D01*
X187031660Y-83400046D02*
X187088749Y-83385774D01*
X187088749Y-83385774D02*
X187117294Y-83371501D01*
X187117294Y-83371501D02*
X187145839Y-83342956D01*
X187145839Y-83342956D02*
X187160111Y-83300139D01*
X187160111Y-83300139D02*
X187160111Y-83228777D01*
X187160111Y-83685494D02*
X187160111Y-83514225D01*
X187160111Y-83599859D02*
X186860391Y-83599859D01*
X186860391Y-83599859D02*
X186903208Y-83571315D01*
X186903208Y-83571315D02*
X186931753Y-83542770D01*
X186931753Y-83542770D02*
X186946025Y-83514225D01*
D10*
X199232380Y-42757142D02*
X198756190Y-42423809D01*
X199232380Y-42185714D02*
X198232380Y-42185714D01*
X198232380Y-42185714D02*
X198232380Y-42566666D01*
X198232380Y-42566666D02*
X198280000Y-42661904D01*
X198280000Y-42661904D02*
X198327619Y-42709523D01*
X198327619Y-42709523D02*
X198422857Y-42757142D01*
X198422857Y-42757142D02*
X198565714Y-42757142D01*
X198565714Y-42757142D02*
X198660952Y-42709523D01*
X198660952Y-42709523D02*
X198708571Y-42661904D01*
X198708571Y-42661904D02*
X198756190Y-42566666D01*
X198756190Y-42566666D02*
X198756190Y-42185714D01*
X198327619Y-43138095D02*
X198280000Y-43185714D01*
X198280000Y-43185714D02*
X198232380Y-43280952D01*
X198232380Y-43280952D02*
X198232380Y-43519047D01*
X198232380Y-43519047D02*
X198280000Y-43614285D01*
X198280000Y-43614285D02*
X198327619Y-43661904D01*
X198327619Y-43661904D02*
X198422857Y-43709523D01*
X198422857Y-43709523D02*
X198518095Y-43709523D01*
X198518095Y-43709523D02*
X198660952Y-43661904D01*
X198660952Y-43661904D02*
X199232380Y-43090476D01*
X199232380Y-43090476D02*
X199232380Y-43709523D01*
X198232380Y-44042857D02*
X198232380Y-44709523D01*
X198232380Y-44709523D02*
X199232380Y-44280952D01*
D11*
X197581952Y-43142857D02*
X197391476Y-43009524D01*
X197581952Y-42914286D02*
X197181952Y-42914286D01*
X197181952Y-42914286D02*
X197181952Y-43066667D01*
X197181952Y-43066667D02*
X197201000Y-43104762D01*
X197201000Y-43104762D02*
X197220047Y-43123809D01*
X197220047Y-43123809D02*
X197258142Y-43142857D01*
X197258142Y-43142857D02*
X197315285Y-43142857D01*
X197315285Y-43142857D02*
X197353380Y-43123809D01*
X197353380Y-43123809D02*
X197372428Y-43104762D01*
X197372428Y-43104762D02*
X197391476Y-43066667D01*
X197391476Y-43066667D02*
X197391476Y-42914286D01*
X197220047Y-43295238D02*
X197201000Y-43314286D01*
X197201000Y-43314286D02*
X197181952Y-43352381D01*
X197181952Y-43352381D02*
X197181952Y-43447619D01*
X197181952Y-43447619D02*
X197201000Y-43485714D01*
X197201000Y-43485714D02*
X197220047Y-43504762D01*
X197220047Y-43504762D02*
X197258142Y-43523809D01*
X197258142Y-43523809D02*
X197296238Y-43523809D01*
X197296238Y-43523809D02*
X197353380Y-43504762D01*
X197353380Y-43504762D02*
X197581952Y-43276190D01*
X197581952Y-43276190D02*
X197581952Y-43523809D01*
X197181952Y-43657142D02*
X197181952Y-43923809D01*
X197181952Y-43923809D02*
X197581952Y-43752380D01*
D10*
X182097380Y-64632142D02*
X181621190Y-64298809D01*
X182097380Y-64060714D02*
X181097380Y-64060714D01*
X181097380Y-64060714D02*
X181097380Y-64441666D01*
X181097380Y-64441666D02*
X181145000Y-64536904D01*
X181145000Y-64536904D02*
X181192619Y-64584523D01*
X181192619Y-64584523D02*
X181287857Y-64632142D01*
X181287857Y-64632142D02*
X181430714Y-64632142D01*
X181430714Y-64632142D02*
X181525952Y-64584523D01*
X181525952Y-64584523D02*
X181573571Y-64536904D01*
X181573571Y-64536904D02*
X181621190Y-64441666D01*
X181621190Y-64441666D02*
X181621190Y-64060714D01*
X181192619Y-65013095D02*
X181145000Y-65060714D01*
X181145000Y-65060714D02*
X181097380Y-65155952D01*
X181097380Y-65155952D02*
X181097380Y-65394047D01*
X181097380Y-65394047D02*
X181145000Y-65489285D01*
X181145000Y-65489285D02*
X181192619Y-65536904D01*
X181192619Y-65536904D02*
X181287857Y-65584523D01*
X181287857Y-65584523D02*
X181383095Y-65584523D01*
X181383095Y-65584523D02*
X181525952Y-65536904D01*
X181525952Y-65536904D02*
X182097380Y-64965476D01*
X182097380Y-64965476D02*
X182097380Y-65584523D01*
X181097380Y-66203571D02*
X181097380Y-66298809D01*
X181097380Y-66298809D02*
X181145000Y-66394047D01*
X181145000Y-66394047D02*
X181192619Y-66441666D01*
X181192619Y-66441666D02*
X181287857Y-66489285D01*
X181287857Y-66489285D02*
X181478333Y-66536904D01*
X181478333Y-66536904D02*
X181716428Y-66536904D01*
X181716428Y-66536904D02*
X181906904Y-66489285D01*
X181906904Y-66489285D02*
X182002142Y-66441666D01*
X182002142Y-66441666D02*
X182049761Y-66394047D01*
X182049761Y-66394047D02*
X182097380Y-66298809D01*
X182097380Y-66298809D02*
X182097380Y-66203571D01*
X182097380Y-66203571D02*
X182049761Y-66108333D01*
X182049761Y-66108333D02*
X182002142Y-66060714D01*
X182002142Y-66060714D02*
X181906904Y-66013095D01*
X181906904Y-66013095D02*
X181716428Y-65965476D01*
X181716428Y-65965476D02*
X181478333Y-65965476D01*
X181478333Y-65965476D02*
X181287857Y-66013095D01*
X181287857Y-66013095D02*
X181192619Y-66060714D01*
X181192619Y-66060714D02*
X181145000Y-66108333D01*
X181145000Y-66108333D02*
X181097380Y-66203571D01*
D11*
X180446952Y-65017857D02*
X180256476Y-64884524D01*
X180446952Y-64789286D02*
X180046952Y-64789286D01*
X180046952Y-64789286D02*
X180046952Y-64941667D01*
X180046952Y-64941667D02*
X180066000Y-64979762D01*
X180066000Y-64979762D02*
X180085047Y-64998809D01*
X180085047Y-64998809D02*
X180123142Y-65017857D01*
X180123142Y-65017857D02*
X180180285Y-65017857D01*
X180180285Y-65017857D02*
X180218380Y-64998809D01*
X180218380Y-64998809D02*
X180237428Y-64979762D01*
X180237428Y-64979762D02*
X180256476Y-64941667D01*
X180256476Y-64941667D02*
X180256476Y-64789286D01*
X180085047Y-65170238D02*
X180066000Y-65189286D01*
X180066000Y-65189286D02*
X180046952Y-65227381D01*
X180046952Y-65227381D02*
X180046952Y-65322619D01*
X180046952Y-65322619D02*
X180066000Y-65360714D01*
X180066000Y-65360714D02*
X180085047Y-65379762D01*
X180085047Y-65379762D02*
X180123142Y-65398809D01*
X180123142Y-65398809D02*
X180161238Y-65398809D01*
X180161238Y-65398809D02*
X180218380Y-65379762D01*
X180218380Y-65379762D02*
X180446952Y-65151190D01*
X180446952Y-65151190D02*
X180446952Y-65398809D01*
X180046952Y-65646428D02*
X180046952Y-65684523D01*
X180046952Y-65684523D02*
X180066000Y-65722619D01*
X180066000Y-65722619D02*
X180085047Y-65741666D01*
X180085047Y-65741666D02*
X180123142Y-65760714D01*
X180123142Y-65760714D02*
X180199333Y-65779761D01*
X180199333Y-65779761D02*
X180294571Y-65779761D01*
X180294571Y-65779761D02*
X180370761Y-65760714D01*
X180370761Y-65760714D02*
X180408857Y-65741666D01*
X180408857Y-65741666D02*
X180427904Y-65722619D01*
X180427904Y-65722619D02*
X180446952Y-65684523D01*
X180446952Y-65684523D02*
X180446952Y-65646428D01*
X180446952Y-65646428D02*
X180427904Y-65608333D01*
X180427904Y-65608333D02*
X180408857Y-65589285D01*
X180408857Y-65589285D02*
X180370761Y-65570238D01*
X180370761Y-65570238D02*
X180294571Y-65551190D01*
X180294571Y-65551190D02*
X180199333Y-65551190D01*
X180199333Y-65551190D02*
X180123142Y-65570238D01*
X180123142Y-65570238D02*
X180085047Y-65589285D01*
X180085047Y-65589285D02*
X180066000Y-65608333D01*
X180066000Y-65608333D02*
X180046952Y-65646428D01*
D10*
X189072380Y-42757142D02*
X188596190Y-42423809D01*
X189072380Y-42185714D02*
X188072380Y-42185714D01*
X188072380Y-42185714D02*
X188072380Y-42566666D01*
X188072380Y-42566666D02*
X188120000Y-42661904D01*
X188120000Y-42661904D02*
X188167619Y-42709523D01*
X188167619Y-42709523D02*
X188262857Y-42757142D01*
X188262857Y-42757142D02*
X188405714Y-42757142D01*
X188405714Y-42757142D02*
X188500952Y-42709523D01*
X188500952Y-42709523D02*
X188548571Y-42661904D01*
X188548571Y-42661904D02*
X188596190Y-42566666D01*
X188596190Y-42566666D02*
X188596190Y-42185714D01*
X188167619Y-43138095D02*
X188120000Y-43185714D01*
X188120000Y-43185714D02*
X188072380Y-43280952D01*
X188072380Y-43280952D02*
X188072380Y-43519047D01*
X188072380Y-43519047D02*
X188120000Y-43614285D01*
X188120000Y-43614285D02*
X188167619Y-43661904D01*
X188167619Y-43661904D02*
X188262857Y-43709523D01*
X188262857Y-43709523D02*
X188358095Y-43709523D01*
X188358095Y-43709523D02*
X188500952Y-43661904D01*
X188500952Y-43661904D02*
X189072380Y-43090476D01*
X189072380Y-43090476D02*
X189072380Y-43709523D01*
X188072380Y-44042857D02*
X188072380Y-44661904D01*
X188072380Y-44661904D02*
X188453333Y-44328571D01*
X188453333Y-44328571D02*
X188453333Y-44471428D01*
X188453333Y-44471428D02*
X188500952Y-44566666D01*
X188500952Y-44566666D02*
X188548571Y-44614285D01*
X188548571Y-44614285D02*
X188643809Y-44661904D01*
X188643809Y-44661904D02*
X188881904Y-44661904D01*
X188881904Y-44661904D02*
X188977142Y-44614285D01*
X188977142Y-44614285D02*
X189024761Y-44566666D01*
X189024761Y-44566666D02*
X189072380Y-44471428D01*
X189072380Y-44471428D02*
X189072380Y-44185714D01*
X189072380Y-44185714D02*
X189024761Y-44090476D01*
X189024761Y-44090476D02*
X188977142Y-44042857D01*
D11*
X187421952Y-43142857D02*
X187231476Y-43009524D01*
X187421952Y-42914286D02*
X187021952Y-42914286D01*
X187021952Y-42914286D02*
X187021952Y-43066667D01*
X187021952Y-43066667D02*
X187041000Y-43104762D01*
X187041000Y-43104762D02*
X187060047Y-43123809D01*
X187060047Y-43123809D02*
X187098142Y-43142857D01*
X187098142Y-43142857D02*
X187155285Y-43142857D01*
X187155285Y-43142857D02*
X187193380Y-43123809D01*
X187193380Y-43123809D02*
X187212428Y-43104762D01*
X187212428Y-43104762D02*
X187231476Y-43066667D01*
X187231476Y-43066667D02*
X187231476Y-42914286D01*
X187060047Y-43295238D02*
X187041000Y-43314286D01*
X187041000Y-43314286D02*
X187021952Y-43352381D01*
X187021952Y-43352381D02*
X187021952Y-43447619D01*
X187021952Y-43447619D02*
X187041000Y-43485714D01*
X187041000Y-43485714D02*
X187060047Y-43504762D01*
X187060047Y-43504762D02*
X187098142Y-43523809D01*
X187098142Y-43523809D02*
X187136238Y-43523809D01*
X187136238Y-43523809D02*
X187193380Y-43504762D01*
X187193380Y-43504762D02*
X187421952Y-43276190D01*
X187421952Y-43276190D02*
X187421952Y-43523809D01*
X187021952Y-43657142D02*
X187021952Y-43904761D01*
X187021952Y-43904761D02*
X187174333Y-43771428D01*
X187174333Y-43771428D02*
X187174333Y-43828571D01*
X187174333Y-43828571D02*
X187193380Y-43866666D01*
X187193380Y-43866666D02*
X187212428Y-43885714D01*
X187212428Y-43885714D02*
X187250523Y-43904761D01*
X187250523Y-43904761D02*
X187345761Y-43904761D01*
X187345761Y-43904761D02*
X187383857Y-43885714D01*
X187383857Y-43885714D02*
X187402904Y-43866666D01*
X187402904Y-43866666D02*
X187421952Y-43828571D01*
X187421952Y-43828571D02*
X187421952Y-43714285D01*
X187421952Y-43714285D02*
X187402904Y-43676190D01*
X187402904Y-43676190D02*
X187383857Y-43657142D01*
D10*
X191612380Y-42757142D02*
X191136190Y-42423809D01*
X191612380Y-42185714D02*
X190612380Y-42185714D01*
X190612380Y-42185714D02*
X190612380Y-42566666D01*
X190612380Y-42566666D02*
X190660000Y-42661904D01*
X190660000Y-42661904D02*
X190707619Y-42709523D01*
X190707619Y-42709523D02*
X190802857Y-42757142D01*
X190802857Y-42757142D02*
X190945714Y-42757142D01*
X190945714Y-42757142D02*
X191040952Y-42709523D01*
X191040952Y-42709523D02*
X191088571Y-42661904D01*
X191088571Y-42661904D02*
X191136190Y-42566666D01*
X191136190Y-42566666D02*
X191136190Y-42185714D01*
X190707619Y-43138095D02*
X190660000Y-43185714D01*
X190660000Y-43185714D02*
X190612380Y-43280952D01*
X190612380Y-43280952D02*
X190612380Y-43519047D01*
X190612380Y-43519047D02*
X190660000Y-43614285D01*
X190660000Y-43614285D02*
X190707619Y-43661904D01*
X190707619Y-43661904D02*
X190802857Y-43709523D01*
X190802857Y-43709523D02*
X190898095Y-43709523D01*
X190898095Y-43709523D02*
X191040952Y-43661904D01*
X191040952Y-43661904D02*
X191612380Y-43090476D01*
X191612380Y-43090476D02*
X191612380Y-43709523D01*
X190945714Y-44566666D02*
X191612380Y-44566666D01*
X190564761Y-44328571D02*
X191279047Y-44090476D01*
X191279047Y-44090476D02*
X191279047Y-44709523D01*
D11*
X189961952Y-43142857D02*
X189771476Y-43009524D01*
X189961952Y-42914286D02*
X189561952Y-42914286D01*
X189561952Y-42914286D02*
X189561952Y-43066667D01*
X189561952Y-43066667D02*
X189581000Y-43104762D01*
X189581000Y-43104762D02*
X189600047Y-43123809D01*
X189600047Y-43123809D02*
X189638142Y-43142857D01*
X189638142Y-43142857D02*
X189695285Y-43142857D01*
X189695285Y-43142857D02*
X189733380Y-43123809D01*
X189733380Y-43123809D02*
X189752428Y-43104762D01*
X189752428Y-43104762D02*
X189771476Y-43066667D01*
X189771476Y-43066667D02*
X189771476Y-42914286D01*
X189600047Y-43295238D02*
X189581000Y-43314286D01*
X189581000Y-43314286D02*
X189561952Y-43352381D01*
X189561952Y-43352381D02*
X189561952Y-43447619D01*
X189561952Y-43447619D02*
X189581000Y-43485714D01*
X189581000Y-43485714D02*
X189600047Y-43504762D01*
X189600047Y-43504762D02*
X189638142Y-43523809D01*
X189638142Y-43523809D02*
X189676238Y-43523809D01*
X189676238Y-43523809D02*
X189733380Y-43504762D01*
X189733380Y-43504762D02*
X189961952Y-43276190D01*
X189961952Y-43276190D02*
X189961952Y-43523809D01*
X189695285Y-43866666D02*
X189961952Y-43866666D01*
X189542904Y-43771428D02*
X189828619Y-43676190D01*
X189828619Y-43676190D02*
X189828619Y-43923809D01*
D10*
X219037380Y-42757142D02*
X218561190Y-42423809D01*
X219037380Y-42185714D02*
X218037380Y-42185714D01*
X218037380Y-42185714D02*
X218037380Y-42566666D01*
X218037380Y-42566666D02*
X218085000Y-42661904D01*
X218085000Y-42661904D02*
X218132619Y-42709523D01*
X218132619Y-42709523D02*
X218227857Y-42757142D01*
X218227857Y-42757142D02*
X218370714Y-42757142D01*
X218370714Y-42757142D02*
X218465952Y-42709523D01*
X218465952Y-42709523D02*
X218513571Y-42661904D01*
X218513571Y-42661904D02*
X218561190Y-42566666D01*
X218561190Y-42566666D02*
X218561190Y-42185714D01*
X218132619Y-43138095D02*
X218085000Y-43185714D01*
X218085000Y-43185714D02*
X218037380Y-43280952D01*
X218037380Y-43280952D02*
X218037380Y-43519047D01*
X218037380Y-43519047D02*
X218085000Y-43614285D01*
X218085000Y-43614285D02*
X218132619Y-43661904D01*
X218132619Y-43661904D02*
X218227857Y-43709523D01*
X218227857Y-43709523D02*
X218323095Y-43709523D01*
X218323095Y-43709523D02*
X218465952Y-43661904D01*
X218465952Y-43661904D02*
X219037380Y-43090476D01*
X219037380Y-43090476D02*
X219037380Y-43709523D01*
X218132619Y-44090476D02*
X218085000Y-44138095D01*
X218085000Y-44138095D02*
X218037380Y-44233333D01*
X218037380Y-44233333D02*
X218037380Y-44471428D01*
X218037380Y-44471428D02*
X218085000Y-44566666D01*
X218085000Y-44566666D02*
X218132619Y-44614285D01*
X218132619Y-44614285D02*
X218227857Y-44661904D01*
X218227857Y-44661904D02*
X218323095Y-44661904D01*
X218323095Y-44661904D02*
X218465952Y-44614285D01*
X218465952Y-44614285D02*
X219037380Y-44042857D01*
X219037380Y-44042857D02*
X219037380Y-44661904D01*
D11*
X217386952Y-43142857D02*
X217196476Y-43009524D01*
X217386952Y-42914286D02*
X216986952Y-42914286D01*
X216986952Y-42914286D02*
X216986952Y-43066667D01*
X216986952Y-43066667D02*
X217006000Y-43104762D01*
X217006000Y-43104762D02*
X217025047Y-43123809D01*
X217025047Y-43123809D02*
X217063142Y-43142857D01*
X217063142Y-43142857D02*
X217120285Y-43142857D01*
X217120285Y-43142857D02*
X217158380Y-43123809D01*
X217158380Y-43123809D02*
X217177428Y-43104762D01*
X217177428Y-43104762D02*
X217196476Y-43066667D01*
X217196476Y-43066667D02*
X217196476Y-42914286D01*
X217025047Y-43295238D02*
X217006000Y-43314286D01*
X217006000Y-43314286D02*
X216986952Y-43352381D01*
X216986952Y-43352381D02*
X216986952Y-43447619D01*
X216986952Y-43447619D02*
X217006000Y-43485714D01*
X217006000Y-43485714D02*
X217025047Y-43504762D01*
X217025047Y-43504762D02*
X217063142Y-43523809D01*
X217063142Y-43523809D02*
X217101238Y-43523809D01*
X217101238Y-43523809D02*
X217158380Y-43504762D01*
X217158380Y-43504762D02*
X217386952Y-43276190D01*
X217386952Y-43276190D02*
X217386952Y-43523809D01*
X217025047Y-43676190D02*
X217006000Y-43695238D01*
X217006000Y-43695238D02*
X216986952Y-43733333D01*
X216986952Y-43733333D02*
X216986952Y-43828571D01*
X216986952Y-43828571D02*
X217006000Y-43866666D01*
X217006000Y-43866666D02*
X217025047Y-43885714D01*
X217025047Y-43885714D02*
X217063142Y-43904761D01*
X217063142Y-43904761D02*
X217101238Y-43904761D01*
X217101238Y-43904761D02*
X217158380Y-43885714D01*
X217158380Y-43885714D02*
X217386952Y-43657142D01*
X217386952Y-43657142D02*
X217386952Y-43904761D01*
D10*
X186467380Y-87132142D02*
X185991190Y-86798809D01*
X186467380Y-86560714D02*
X185467380Y-86560714D01*
X185467380Y-86560714D02*
X185467380Y-86941666D01*
X185467380Y-86941666D02*
X185515000Y-87036904D01*
X185515000Y-87036904D02*
X185562619Y-87084523D01*
X185562619Y-87084523D02*
X185657857Y-87132142D01*
X185657857Y-87132142D02*
X185800714Y-87132142D01*
X185800714Y-87132142D02*
X185895952Y-87084523D01*
X185895952Y-87084523D02*
X185943571Y-87036904D01*
X185943571Y-87036904D02*
X185991190Y-86941666D01*
X185991190Y-86941666D02*
X185991190Y-86560714D01*
X185467380Y-87465476D02*
X185467380Y-88084523D01*
X185467380Y-88084523D02*
X185848333Y-87751190D01*
X185848333Y-87751190D02*
X185848333Y-87894047D01*
X185848333Y-87894047D02*
X185895952Y-87989285D01*
X185895952Y-87989285D02*
X185943571Y-88036904D01*
X185943571Y-88036904D02*
X186038809Y-88084523D01*
X186038809Y-88084523D02*
X186276904Y-88084523D01*
X186276904Y-88084523D02*
X186372142Y-88036904D01*
X186372142Y-88036904D02*
X186419761Y-87989285D01*
X186419761Y-87989285D02*
X186467380Y-87894047D01*
X186467380Y-87894047D02*
X186467380Y-87608333D01*
X186467380Y-87608333D02*
X186419761Y-87513095D01*
X186419761Y-87513095D02*
X186372142Y-87465476D01*
X186467380Y-89036904D02*
X186467380Y-88465476D01*
X186467380Y-88751190D02*
X185467380Y-88751190D01*
X185467380Y-88751190D02*
X185610238Y-88655952D01*
X185610238Y-88655952D02*
X185705476Y-88560714D01*
X185705476Y-88560714D02*
X185753095Y-88465476D01*
D11*
X185946952Y-83167857D02*
X185756476Y-83034524D01*
X185946952Y-82939286D02*
X185546952Y-82939286D01*
X185546952Y-82939286D02*
X185546952Y-83091667D01*
X185546952Y-83091667D02*
X185566000Y-83129762D01*
X185566000Y-83129762D02*
X185585047Y-83148809D01*
X185585047Y-83148809D02*
X185623142Y-83167857D01*
X185623142Y-83167857D02*
X185680285Y-83167857D01*
X185680285Y-83167857D02*
X185718380Y-83148809D01*
X185718380Y-83148809D02*
X185737428Y-83129762D01*
X185737428Y-83129762D02*
X185756476Y-83091667D01*
X185756476Y-83091667D02*
X185756476Y-82939286D01*
X185546952Y-83301190D02*
X185546952Y-83548809D01*
X185546952Y-83548809D02*
X185699333Y-83415476D01*
X185699333Y-83415476D02*
X185699333Y-83472619D01*
X185699333Y-83472619D02*
X185718380Y-83510714D01*
X185718380Y-83510714D02*
X185737428Y-83529762D01*
X185737428Y-83529762D02*
X185775523Y-83548809D01*
X185775523Y-83548809D02*
X185870761Y-83548809D01*
X185870761Y-83548809D02*
X185908857Y-83529762D01*
X185908857Y-83529762D02*
X185927904Y-83510714D01*
X185927904Y-83510714D02*
X185946952Y-83472619D01*
X185946952Y-83472619D02*
X185946952Y-83358333D01*
X185946952Y-83358333D02*
X185927904Y-83320238D01*
X185927904Y-83320238D02*
X185908857Y-83301190D01*
X185946952Y-83929761D02*
X185946952Y-83701190D01*
X185946952Y-83815476D02*
X185546952Y-83815476D01*
X185546952Y-83815476D02*
X185604095Y-83777380D01*
X185604095Y-83777380D02*
X185642190Y-83739285D01*
X185642190Y-83739285D02*
X185661238Y-83701190D01*
D10*
X187597380Y-64632142D02*
X187121190Y-64298809D01*
X187597380Y-64060714D02*
X186597380Y-64060714D01*
X186597380Y-64060714D02*
X186597380Y-64441666D01*
X186597380Y-64441666D02*
X186645000Y-64536904D01*
X186645000Y-64536904D02*
X186692619Y-64584523D01*
X186692619Y-64584523D02*
X186787857Y-64632142D01*
X186787857Y-64632142D02*
X186930714Y-64632142D01*
X186930714Y-64632142D02*
X187025952Y-64584523D01*
X187025952Y-64584523D02*
X187073571Y-64536904D01*
X187073571Y-64536904D02*
X187121190Y-64441666D01*
X187121190Y-64441666D02*
X187121190Y-64060714D01*
X186597380Y-64965476D02*
X186597380Y-65584523D01*
X186597380Y-65584523D02*
X186978333Y-65251190D01*
X186978333Y-65251190D02*
X186978333Y-65394047D01*
X186978333Y-65394047D02*
X187025952Y-65489285D01*
X187025952Y-65489285D02*
X187073571Y-65536904D01*
X187073571Y-65536904D02*
X187168809Y-65584523D01*
X187168809Y-65584523D02*
X187406904Y-65584523D01*
X187406904Y-65584523D02*
X187502142Y-65536904D01*
X187502142Y-65536904D02*
X187549761Y-65489285D01*
X187549761Y-65489285D02*
X187597380Y-65394047D01*
X187597380Y-65394047D02*
X187597380Y-65108333D01*
X187597380Y-65108333D02*
X187549761Y-65013095D01*
X187549761Y-65013095D02*
X187502142Y-64965476D01*
X186692619Y-65965476D02*
X186645000Y-66013095D01*
X186645000Y-66013095D02*
X186597380Y-66108333D01*
X186597380Y-66108333D02*
X186597380Y-66346428D01*
X186597380Y-66346428D02*
X186645000Y-66441666D01*
X186645000Y-66441666D02*
X186692619Y-66489285D01*
X186692619Y-66489285D02*
X186787857Y-66536904D01*
X186787857Y-66536904D02*
X186883095Y-66536904D01*
X186883095Y-66536904D02*
X187025952Y-66489285D01*
X187025952Y-66489285D02*
X187597380Y-65917857D01*
X187597380Y-65917857D02*
X187597380Y-66536904D01*
D11*
X185946952Y-65017857D02*
X185756476Y-64884524D01*
X185946952Y-64789286D02*
X185546952Y-64789286D01*
X185546952Y-64789286D02*
X185546952Y-64941667D01*
X185546952Y-64941667D02*
X185566000Y-64979762D01*
X185566000Y-64979762D02*
X185585047Y-64998809D01*
X185585047Y-64998809D02*
X185623142Y-65017857D01*
X185623142Y-65017857D02*
X185680285Y-65017857D01*
X185680285Y-65017857D02*
X185718380Y-64998809D01*
X185718380Y-64998809D02*
X185737428Y-64979762D01*
X185737428Y-64979762D02*
X185756476Y-64941667D01*
X185756476Y-64941667D02*
X185756476Y-64789286D01*
X185546952Y-65151190D02*
X185546952Y-65398809D01*
X185546952Y-65398809D02*
X185699333Y-65265476D01*
X185699333Y-65265476D02*
X185699333Y-65322619D01*
X185699333Y-65322619D02*
X185718380Y-65360714D01*
X185718380Y-65360714D02*
X185737428Y-65379762D01*
X185737428Y-65379762D02*
X185775523Y-65398809D01*
X185775523Y-65398809D02*
X185870761Y-65398809D01*
X185870761Y-65398809D02*
X185908857Y-65379762D01*
X185908857Y-65379762D02*
X185927904Y-65360714D01*
X185927904Y-65360714D02*
X185946952Y-65322619D01*
X185946952Y-65322619D02*
X185946952Y-65208333D01*
X185946952Y-65208333D02*
X185927904Y-65170238D01*
X185927904Y-65170238D02*
X185908857Y-65151190D01*
X185585047Y-65551190D02*
X185566000Y-65570238D01*
X185566000Y-65570238D02*
X185546952Y-65608333D01*
X185546952Y-65608333D02*
X185546952Y-65703571D01*
X185546952Y-65703571D02*
X185566000Y-65741666D01*
X185566000Y-65741666D02*
X185585047Y-65760714D01*
X185585047Y-65760714D02*
X185623142Y-65779761D01*
X185623142Y-65779761D02*
X185661238Y-65779761D01*
X185661238Y-65779761D02*
X185718380Y-65760714D01*
X185718380Y-65760714D02*
X185946952Y-65532142D01*
X185946952Y-65532142D02*
X185946952Y-65779761D01*
D10*
X204312380Y-42757142D02*
X203836190Y-42423809D01*
X204312380Y-42185714D02*
X203312380Y-42185714D01*
X203312380Y-42185714D02*
X203312380Y-42566666D01*
X203312380Y-42566666D02*
X203360000Y-42661904D01*
X203360000Y-42661904D02*
X203407619Y-42709523D01*
X203407619Y-42709523D02*
X203502857Y-42757142D01*
X203502857Y-42757142D02*
X203645714Y-42757142D01*
X203645714Y-42757142D02*
X203740952Y-42709523D01*
X203740952Y-42709523D02*
X203788571Y-42661904D01*
X203788571Y-42661904D02*
X203836190Y-42566666D01*
X203836190Y-42566666D02*
X203836190Y-42185714D01*
X203407619Y-43138095D02*
X203360000Y-43185714D01*
X203360000Y-43185714D02*
X203312380Y-43280952D01*
X203312380Y-43280952D02*
X203312380Y-43519047D01*
X203312380Y-43519047D02*
X203360000Y-43614285D01*
X203360000Y-43614285D02*
X203407619Y-43661904D01*
X203407619Y-43661904D02*
X203502857Y-43709523D01*
X203502857Y-43709523D02*
X203598095Y-43709523D01*
X203598095Y-43709523D02*
X203740952Y-43661904D01*
X203740952Y-43661904D02*
X204312380Y-43090476D01*
X204312380Y-43090476D02*
X204312380Y-43709523D01*
X204312380Y-44185714D02*
X204312380Y-44376190D01*
X204312380Y-44376190D02*
X204264761Y-44471428D01*
X204264761Y-44471428D02*
X204217142Y-44519047D01*
X204217142Y-44519047D02*
X204074285Y-44614285D01*
X204074285Y-44614285D02*
X203883809Y-44661904D01*
X203883809Y-44661904D02*
X203502857Y-44661904D01*
X203502857Y-44661904D02*
X203407619Y-44614285D01*
X203407619Y-44614285D02*
X203360000Y-44566666D01*
X203360000Y-44566666D02*
X203312380Y-44471428D01*
X203312380Y-44471428D02*
X203312380Y-44280952D01*
X203312380Y-44280952D02*
X203360000Y-44185714D01*
X203360000Y-44185714D02*
X203407619Y-44138095D01*
X203407619Y-44138095D02*
X203502857Y-44090476D01*
X203502857Y-44090476D02*
X203740952Y-44090476D01*
X203740952Y-44090476D02*
X203836190Y-44138095D01*
X203836190Y-44138095D02*
X203883809Y-44185714D01*
X203883809Y-44185714D02*
X203931428Y-44280952D01*
X203931428Y-44280952D02*
X203931428Y-44471428D01*
X203931428Y-44471428D02*
X203883809Y-44566666D01*
X203883809Y-44566666D02*
X203836190Y-44614285D01*
X203836190Y-44614285D02*
X203740952Y-44661904D01*
D11*
X202661952Y-43142857D02*
X202471476Y-43009524D01*
X202661952Y-42914286D02*
X202261952Y-42914286D01*
X202261952Y-42914286D02*
X202261952Y-43066667D01*
X202261952Y-43066667D02*
X202281000Y-43104762D01*
X202281000Y-43104762D02*
X202300047Y-43123809D01*
X202300047Y-43123809D02*
X202338142Y-43142857D01*
X202338142Y-43142857D02*
X202395285Y-43142857D01*
X202395285Y-43142857D02*
X202433380Y-43123809D01*
X202433380Y-43123809D02*
X202452428Y-43104762D01*
X202452428Y-43104762D02*
X202471476Y-43066667D01*
X202471476Y-43066667D02*
X202471476Y-42914286D01*
X202300047Y-43295238D02*
X202281000Y-43314286D01*
X202281000Y-43314286D02*
X202261952Y-43352381D01*
X202261952Y-43352381D02*
X202261952Y-43447619D01*
X202261952Y-43447619D02*
X202281000Y-43485714D01*
X202281000Y-43485714D02*
X202300047Y-43504762D01*
X202300047Y-43504762D02*
X202338142Y-43523809D01*
X202338142Y-43523809D02*
X202376238Y-43523809D01*
X202376238Y-43523809D02*
X202433380Y-43504762D01*
X202433380Y-43504762D02*
X202661952Y-43276190D01*
X202661952Y-43276190D02*
X202661952Y-43523809D01*
X202661952Y-43714285D02*
X202661952Y-43790476D01*
X202661952Y-43790476D02*
X202642904Y-43828571D01*
X202642904Y-43828571D02*
X202623857Y-43847619D01*
X202623857Y-43847619D02*
X202566714Y-43885714D01*
X202566714Y-43885714D02*
X202490523Y-43904761D01*
X202490523Y-43904761D02*
X202338142Y-43904761D01*
X202338142Y-43904761D02*
X202300047Y-43885714D01*
X202300047Y-43885714D02*
X202281000Y-43866666D01*
X202281000Y-43866666D02*
X202261952Y-43828571D01*
X202261952Y-43828571D02*
X202261952Y-43752380D01*
X202261952Y-43752380D02*
X202281000Y-43714285D01*
X202281000Y-43714285D02*
X202300047Y-43695238D01*
X202300047Y-43695238D02*
X202338142Y-43676190D01*
X202338142Y-43676190D02*
X202433380Y-43676190D01*
X202433380Y-43676190D02*
X202471476Y-43695238D01*
X202471476Y-43695238D02*
X202490523Y-43714285D01*
X202490523Y-43714285D02*
X202509571Y-43752380D01*
X202509571Y-43752380D02*
X202509571Y-43828571D01*
X202509571Y-43828571D02*
X202490523Y-43866666D01*
X202490523Y-43866666D02*
X202471476Y-43885714D01*
X202471476Y-43885714D02*
X202433380Y-43904761D01*
D10*
X179237380Y-82782142D02*
X178761190Y-82448809D01*
X179237380Y-82210714D02*
X178237380Y-82210714D01*
X178237380Y-82210714D02*
X178237380Y-82591666D01*
X178237380Y-82591666D02*
X178285000Y-82686904D01*
X178285000Y-82686904D02*
X178332619Y-82734523D01*
X178332619Y-82734523D02*
X178427857Y-82782142D01*
X178427857Y-82782142D02*
X178570714Y-82782142D01*
X178570714Y-82782142D02*
X178665952Y-82734523D01*
X178665952Y-82734523D02*
X178713571Y-82686904D01*
X178713571Y-82686904D02*
X178761190Y-82591666D01*
X178761190Y-82591666D02*
X178761190Y-82210714D01*
X179237380Y-83734523D02*
X179237380Y-83163095D01*
X179237380Y-83448809D02*
X178237380Y-83448809D01*
X178237380Y-83448809D02*
X178380238Y-83353571D01*
X178380238Y-83353571D02*
X178475476Y-83258333D01*
X178475476Y-83258333D02*
X178523095Y-83163095D01*
X179237380Y-84210714D02*
X179237380Y-84401190D01*
X179237380Y-84401190D02*
X179189761Y-84496428D01*
X179189761Y-84496428D02*
X179142142Y-84544047D01*
X179142142Y-84544047D02*
X178999285Y-84639285D01*
X178999285Y-84639285D02*
X178808809Y-84686904D01*
X178808809Y-84686904D02*
X178427857Y-84686904D01*
X178427857Y-84686904D02*
X178332619Y-84639285D01*
X178332619Y-84639285D02*
X178285000Y-84591666D01*
X178285000Y-84591666D02*
X178237380Y-84496428D01*
X178237380Y-84496428D02*
X178237380Y-84305952D01*
X178237380Y-84305952D02*
X178285000Y-84210714D01*
X178285000Y-84210714D02*
X178332619Y-84163095D01*
X178332619Y-84163095D02*
X178427857Y-84115476D01*
X178427857Y-84115476D02*
X178665952Y-84115476D01*
X178665952Y-84115476D02*
X178761190Y-84163095D01*
X178761190Y-84163095D02*
X178808809Y-84210714D01*
X178808809Y-84210714D02*
X178856428Y-84305952D01*
X178856428Y-84305952D02*
X178856428Y-84496428D01*
X178856428Y-84496428D02*
X178808809Y-84591666D01*
X178808809Y-84591666D02*
X178761190Y-84639285D01*
X178761190Y-84639285D02*
X178665952Y-84686904D01*
D11*
X180446952Y-83167857D02*
X180256476Y-83034524D01*
X180446952Y-82939286D02*
X180046952Y-82939286D01*
X180046952Y-82939286D02*
X180046952Y-83091667D01*
X180046952Y-83091667D02*
X180066000Y-83129762D01*
X180066000Y-83129762D02*
X180085047Y-83148809D01*
X180085047Y-83148809D02*
X180123142Y-83167857D01*
X180123142Y-83167857D02*
X180180285Y-83167857D01*
X180180285Y-83167857D02*
X180218380Y-83148809D01*
X180218380Y-83148809D02*
X180237428Y-83129762D01*
X180237428Y-83129762D02*
X180256476Y-83091667D01*
X180256476Y-83091667D02*
X180256476Y-82939286D01*
X180446952Y-83548809D02*
X180446952Y-83320238D01*
X180446952Y-83434524D02*
X180046952Y-83434524D01*
X180046952Y-83434524D02*
X180104095Y-83396428D01*
X180104095Y-83396428D02*
X180142190Y-83358333D01*
X180142190Y-83358333D02*
X180161238Y-83320238D01*
X180446952Y-83739285D02*
X180446952Y-83815476D01*
X180446952Y-83815476D02*
X180427904Y-83853571D01*
X180427904Y-83853571D02*
X180408857Y-83872619D01*
X180408857Y-83872619D02*
X180351714Y-83910714D01*
X180351714Y-83910714D02*
X180275523Y-83929761D01*
X180275523Y-83929761D02*
X180123142Y-83929761D01*
X180123142Y-83929761D02*
X180085047Y-83910714D01*
X180085047Y-83910714D02*
X180066000Y-83891666D01*
X180066000Y-83891666D02*
X180046952Y-83853571D01*
X180046952Y-83853571D02*
X180046952Y-83777380D01*
X180046952Y-83777380D02*
X180066000Y-83739285D01*
X180066000Y-83739285D02*
X180085047Y-83720238D01*
X180085047Y-83720238D02*
X180123142Y-83701190D01*
X180123142Y-83701190D02*
X180218380Y-83701190D01*
X180218380Y-83701190D02*
X180256476Y-83720238D01*
X180256476Y-83720238D02*
X180275523Y-83739285D01*
X180275523Y-83739285D02*
X180294571Y-83777380D01*
X180294571Y-83777380D02*
X180294571Y-83853571D01*
X180294571Y-83853571D02*
X180275523Y-83891666D01*
X180275523Y-83891666D02*
X180256476Y-83910714D01*
X180256476Y-83910714D02*
X180218380Y-83929761D01*
D10*
X216497380Y-42757142D02*
X216021190Y-42423809D01*
X216497380Y-42185714D02*
X215497380Y-42185714D01*
X215497380Y-42185714D02*
X215497380Y-42566666D01*
X215497380Y-42566666D02*
X215545000Y-42661904D01*
X215545000Y-42661904D02*
X215592619Y-42709523D01*
X215592619Y-42709523D02*
X215687857Y-42757142D01*
X215687857Y-42757142D02*
X215830714Y-42757142D01*
X215830714Y-42757142D02*
X215925952Y-42709523D01*
X215925952Y-42709523D02*
X215973571Y-42661904D01*
X215973571Y-42661904D02*
X216021190Y-42566666D01*
X216021190Y-42566666D02*
X216021190Y-42185714D01*
X215592619Y-43138095D02*
X215545000Y-43185714D01*
X215545000Y-43185714D02*
X215497380Y-43280952D01*
X215497380Y-43280952D02*
X215497380Y-43519047D01*
X215497380Y-43519047D02*
X215545000Y-43614285D01*
X215545000Y-43614285D02*
X215592619Y-43661904D01*
X215592619Y-43661904D02*
X215687857Y-43709523D01*
X215687857Y-43709523D02*
X215783095Y-43709523D01*
X215783095Y-43709523D02*
X215925952Y-43661904D01*
X215925952Y-43661904D02*
X216497380Y-43090476D01*
X216497380Y-43090476D02*
X216497380Y-43709523D01*
X216497380Y-44661904D02*
X216497380Y-44090476D01*
X216497380Y-44376190D02*
X215497380Y-44376190D01*
X215497380Y-44376190D02*
X215640238Y-44280952D01*
X215640238Y-44280952D02*
X215735476Y-44185714D01*
X215735476Y-44185714D02*
X215783095Y-44090476D01*
D11*
X214846952Y-43142857D02*
X214656476Y-43009524D01*
X214846952Y-42914286D02*
X214446952Y-42914286D01*
X214446952Y-42914286D02*
X214446952Y-43066667D01*
X214446952Y-43066667D02*
X214466000Y-43104762D01*
X214466000Y-43104762D02*
X214485047Y-43123809D01*
X214485047Y-43123809D02*
X214523142Y-43142857D01*
X214523142Y-43142857D02*
X214580285Y-43142857D01*
X214580285Y-43142857D02*
X214618380Y-43123809D01*
X214618380Y-43123809D02*
X214637428Y-43104762D01*
X214637428Y-43104762D02*
X214656476Y-43066667D01*
X214656476Y-43066667D02*
X214656476Y-42914286D01*
X214485047Y-43295238D02*
X214466000Y-43314286D01*
X214466000Y-43314286D02*
X214446952Y-43352381D01*
X214446952Y-43352381D02*
X214446952Y-43447619D01*
X214446952Y-43447619D02*
X214466000Y-43485714D01*
X214466000Y-43485714D02*
X214485047Y-43504762D01*
X214485047Y-43504762D02*
X214523142Y-43523809D01*
X214523142Y-43523809D02*
X214561238Y-43523809D01*
X214561238Y-43523809D02*
X214618380Y-43504762D01*
X214618380Y-43504762D02*
X214846952Y-43276190D01*
X214846952Y-43276190D02*
X214846952Y-43523809D01*
X214846952Y-43904761D02*
X214846952Y-43676190D01*
X214846952Y-43790476D02*
X214446952Y-43790476D01*
X214446952Y-43790476D02*
X214504095Y-43752380D01*
X214504095Y-43752380D02*
X214542190Y-43714285D01*
X214542190Y-43714285D02*
X214561238Y-43676190D01*
D10*
X206852380Y-42757142D02*
X206376190Y-42423809D01*
X206852380Y-42185714D02*
X205852380Y-42185714D01*
X205852380Y-42185714D02*
X205852380Y-42566666D01*
X205852380Y-42566666D02*
X205900000Y-42661904D01*
X205900000Y-42661904D02*
X205947619Y-42709523D01*
X205947619Y-42709523D02*
X206042857Y-42757142D01*
X206042857Y-42757142D02*
X206185714Y-42757142D01*
X206185714Y-42757142D02*
X206280952Y-42709523D01*
X206280952Y-42709523D02*
X206328571Y-42661904D01*
X206328571Y-42661904D02*
X206376190Y-42566666D01*
X206376190Y-42566666D02*
X206376190Y-42185714D01*
X205852380Y-43090476D02*
X205852380Y-43709523D01*
X205852380Y-43709523D02*
X206233333Y-43376190D01*
X206233333Y-43376190D02*
X206233333Y-43519047D01*
X206233333Y-43519047D02*
X206280952Y-43614285D01*
X206280952Y-43614285D02*
X206328571Y-43661904D01*
X206328571Y-43661904D02*
X206423809Y-43709523D01*
X206423809Y-43709523D02*
X206661904Y-43709523D01*
X206661904Y-43709523D02*
X206757142Y-43661904D01*
X206757142Y-43661904D02*
X206804761Y-43614285D01*
X206804761Y-43614285D02*
X206852380Y-43519047D01*
X206852380Y-43519047D02*
X206852380Y-43233333D01*
X206852380Y-43233333D02*
X206804761Y-43138095D01*
X206804761Y-43138095D02*
X206757142Y-43090476D01*
X205852380Y-44328571D02*
X205852380Y-44423809D01*
X205852380Y-44423809D02*
X205900000Y-44519047D01*
X205900000Y-44519047D02*
X205947619Y-44566666D01*
X205947619Y-44566666D02*
X206042857Y-44614285D01*
X206042857Y-44614285D02*
X206233333Y-44661904D01*
X206233333Y-44661904D02*
X206471428Y-44661904D01*
X206471428Y-44661904D02*
X206661904Y-44614285D01*
X206661904Y-44614285D02*
X206757142Y-44566666D01*
X206757142Y-44566666D02*
X206804761Y-44519047D01*
X206804761Y-44519047D02*
X206852380Y-44423809D01*
X206852380Y-44423809D02*
X206852380Y-44328571D01*
X206852380Y-44328571D02*
X206804761Y-44233333D01*
X206804761Y-44233333D02*
X206757142Y-44185714D01*
X206757142Y-44185714D02*
X206661904Y-44138095D01*
X206661904Y-44138095D02*
X206471428Y-44090476D01*
X206471428Y-44090476D02*
X206233333Y-44090476D01*
X206233333Y-44090476D02*
X206042857Y-44138095D01*
X206042857Y-44138095D02*
X205947619Y-44185714D01*
X205947619Y-44185714D02*
X205900000Y-44233333D01*
X205900000Y-44233333D02*
X205852380Y-44328571D01*
D11*
X205201952Y-43142857D02*
X205011476Y-43009524D01*
X205201952Y-42914286D02*
X204801952Y-42914286D01*
X204801952Y-42914286D02*
X204801952Y-43066667D01*
X204801952Y-43066667D02*
X204821000Y-43104762D01*
X204821000Y-43104762D02*
X204840047Y-43123809D01*
X204840047Y-43123809D02*
X204878142Y-43142857D01*
X204878142Y-43142857D02*
X204935285Y-43142857D01*
X204935285Y-43142857D02*
X204973380Y-43123809D01*
X204973380Y-43123809D02*
X204992428Y-43104762D01*
X204992428Y-43104762D02*
X205011476Y-43066667D01*
X205011476Y-43066667D02*
X205011476Y-42914286D01*
X204801952Y-43276190D02*
X204801952Y-43523809D01*
X204801952Y-43523809D02*
X204954333Y-43390476D01*
X204954333Y-43390476D02*
X204954333Y-43447619D01*
X204954333Y-43447619D02*
X204973380Y-43485714D01*
X204973380Y-43485714D02*
X204992428Y-43504762D01*
X204992428Y-43504762D02*
X205030523Y-43523809D01*
X205030523Y-43523809D02*
X205125761Y-43523809D01*
X205125761Y-43523809D02*
X205163857Y-43504762D01*
X205163857Y-43504762D02*
X205182904Y-43485714D01*
X205182904Y-43485714D02*
X205201952Y-43447619D01*
X205201952Y-43447619D02*
X205201952Y-43333333D01*
X205201952Y-43333333D02*
X205182904Y-43295238D01*
X205182904Y-43295238D02*
X205163857Y-43276190D01*
X204801952Y-43771428D02*
X204801952Y-43809523D01*
X204801952Y-43809523D02*
X204821000Y-43847619D01*
X204821000Y-43847619D02*
X204840047Y-43866666D01*
X204840047Y-43866666D02*
X204878142Y-43885714D01*
X204878142Y-43885714D02*
X204954333Y-43904761D01*
X204954333Y-43904761D02*
X205049571Y-43904761D01*
X205049571Y-43904761D02*
X205125761Y-43885714D01*
X205125761Y-43885714D02*
X205163857Y-43866666D01*
X205163857Y-43866666D02*
X205182904Y-43847619D01*
X205182904Y-43847619D02*
X205201952Y-43809523D01*
X205201952Y-43809523D02*
X205201952Y-43771428D01*
X205201952Y-43771428D02*
X205182904Y-43733333D01*
X205182904Y-43733333D02*
X205163857Y-43714285D01*
X205163857Y-43714285D02*
X205125761Y-43695238D01*
X205125761Y-43695238D02*
X205049571Y-43676190D01*
X205049571Y-43676190D02*
X204954333Y-43676190D01*
X204954333Y-43676190D02*
X204878142Y-43695238D01*
X204878142Y-43695238D02*
X204840047Y-43714285D01*
X204840047Y-43714285D02*
X204821000Y-43733333D01*
X204821000Y-43733333D02*
X204801952Y-43771428D01*
D10*
X201772380Y-42757142D02*
X201296190Y-42423809D01*
X201772380Y-42185714D02*
X200772380Y-42185714D01*
X200772380Y-42185714D02*
X200772380Y-42566666D01*
X200772380Y-42566666D02*
X200820000Y-42661904D01*
X200820000Y-42661904D02*
X200867619Y-42709523D01*
X200867619Y-42709523D02*
X200962857Y-42757142D01*
X200962857Y-42757142D02*
X201105714Y-42757142D01*
X201105714Y-42757142D02*
X201200952Y-42709523D01*
X201200952Y-42709523D02*
X201248571Y-42661904D01*
X201248571Y-42661904D02*
X201296190Y-42566666D01*
X201296190Y-42566666D02*
X201296190Y-42185714D01*
X200867619Y-43138095D02*
X200820000Y-43185714D01*
X200820000Y-43185714D02*
X200772380Y-43280952D01*
X200772380Y-43280952D02*
X200772380Y-43519047D01*
X200772380Y-43519047D02*
X200820000Y-43614285D01*
X200820000Y-43614285D02*
X200867619Y-43661904D01*
X200867619Y-43661904D02*
X200962857Y-43709523D01*
X200962857Y-43709523D02*
X201058095Y-43709523D01*
X201058095Y-43709523D02*
X201200952Y-43661904D01*
X201200952Y-43661904D02*
X201772380Y-43090476D01*
X201772380Y-43090476D02*
X201772380Y-43709523D01*
X201200952Y-44280952D02*
X201153333Y-44185714D01*
X201153333Y-44185714D02*
X201105714Y-44138095D01*
X201105714Y-44138095D02*
X201010476Y-44090476D01*
X201010476Y-44090476D02*
X200962857Y-44090476D01*
X200962857Y-44090476D02*
X200867619Y-44138095D01*
X200867619Y-44138095D02*
X200820000Y-44185714D01*
X200820000Y-44185714D02*
X200772380Y-44280952D01*
X200772380Y-44280952D02*
X200772380Y-44471428D01*
X200772380Y-44471428D02*
X200820000Y-44566666D01*
X200820000Y-44566666D02*
X200867619Y-44614285D01*
X200867619Y-44614285D02*
X200962857Y-44661904D01*
X200962857Y-44661904D02*
X201010476Y-44661904D01*
X201010476Y-44661904D02*
X201105714Y-44614285D01*
X201105714Y-44614285D02*
X201153333Y-44566666D01*
X201153333Y-44566666D02*
X201200952Y-44471428D01*
X201200952Y-44471428D02*
X201200952Y-44280952D01*
X201200952Y-44280952D02*
X201248571Y-44185714D01*
X201248571Y-44185714D02*
X201296190Y-44138095D01*
X201296190Y-44138095D02*
X201391428Y-44090476D01*
X201391428Y-44090476D02*
X201581904Y-44090476D01*
X201581904Y-44090476D02*
X201677142Y-44138095D01*
X201677142Y-44138095D02*
X201724761Y-44185714D01*
X201724761Y-44185714D02*
X201772380Y-44280952D01*
X201772380Y-44280952D02*
X201772380Y-44471428D01*
X201772380Y-44471428D02*
X201724761Y-44566666D01*
X201724761Y-44566666D02*
X201677142Y-44614285D01*
X201677142Y-44614285D02*
X201581904Y-44661904D01*
X201581904Y-44661904D02*
X201391428Y-44661904D01*
X201391428Y-44661904D02*
X201296190Y-44614285D01*
X201296190Y-44614285D02*
X201248571Y-44566666D01*
X201248571Y-44566666D02*
X201200952Y-44471428D01*
D11*
X200121952Y-43142857D02*
X199931476Y-43009524D01*
X200121952Y-42914286D02*
X199721952Y-42914286D01*
X199721952Y-42914286D02*
X199721952Y-43066667D01*
X199721952Y-43066667D02*
X199741000Y-43104762D01*
X199741000Y-43104762D02*
X199760047Y-43123809D01*
X199760047Y-43123809D02*
X199798142Y-43142857D01*
X199798142Y-43142857D02*
X199855285Y-43142857D01*
X199855285Y-43142857D02*
X199893380Y-43123809D01*
X199893380Y-43123809D02*
X199912428Y-43104762D01*
X199912428Y-43104762D02*
X199931476Y-43066667D01*
X199931476Y-43066667D02*
X199931476Y-42914286D01*
X199760047Y-43295238D02*
X199741000Y-43314286D01*
X199741000Y-43314286D02*
X199721952Y-43352381D01*
X199721952Y-43352381D02*
X199721952Y-43447619D01*
X199721952Y-43447619D02*
X199741000Y-43485714D01*
X199741000Y-43485714D02*
X199760047Y-43504762D01*
X199760047Y-43504762D02*
X199798142Y-43523809D01*
X199798142Y-43523809D02*
X199836238Y-43523809D01*
X199836238Y-43523809D02*
X199893380Y-43504762D01*
X199893380Y-43504762D02*
X200121952Y-43276190D01*
X200121952Y-43276190D02*
X200121952Y-43523809D01*
X199893380Y-43752380D02*
X199874333Y-43714285D01*
X199874333Y-43714285D02*
X199855285Y-43695238D01*
X199855285Y-43695238D02*
X199817190Y-43676190D01*
X199817190Y-43676190D02*
X199798142Y-43676190D01*
X199798142Y-43676190D02*
X199760047Y-43695238D01*
X199760047Y-43695238D02*
X199741000Y-43714285D01*
X199741000Y-43714285D02*
X199721952Y-43752380D01*
X199721952Y-43752380D02*
X199721952Y-43828571D01*
X199721952Y-43828571D02*
X199741000Y-43866666D01*
X199741000Y-43866666D02*
X199760047Y-43885714D01*
X199760047Y-43885714D02*
X199798142Y-43904761D01*
X199798142Y-43904761D02*
X199817190Y-43904761D01*
X199817190Y-43904761D02*
X199855285Y-43885714D01*
X199855285Y-43885714D02*
X199874333Y-43866666D01*
X199874333Y-43866666D02*
X199893380Y-43828571D01*
X199893380Y-43828571D02*
X199893380Y-43752380D01*
X199893380Y-43752380D02*
X199912428Y-43714285D01*
X199912428Y-43714285D02*
X199931476Y-43695238D01*
X199931476Y-43695238D02*
X199969571Y-43676190D01*
X199969571Y-43676190D02*
X200045761Y-43676190D01*
X200045761Y-43676190D02*
X200083857Y-43695238D01*
X200083857Y-43695238D02*
X200102904Y-43714285D01*
X200102904Y-43714285D02*
X200121952Y-43752380D01*
X200121952Y-43752380D02*
X200121952Y-43828571D01*
X200121952Y-43828571D02*
X200102904Y-43866666D01*
X200102904Y-43866666D02*
X200083857Y-43885714D01*
X200083857Y-43885714D02*
X200045761Y-43904761D01*
X200045761Y-43904761D02*
X199969571Y-43904761D01*
X199969571Y-43904761D02*
X199931476Y-43885714D01*
X199931476Y-43885714D02*
X199912428Y-43866666D01*
X199912428Y-43866666D02*
X199893380Y-43828571D01*
D14*
X194482500Y-44200000D02*
X195307500Y-44200000D01*
X195307500Y-44200000D02*
X195307500Y-42600000D01*
X194482500Y-42600000D02*
X194482500Y-44200000D01*
X195307500Y-42600000D02*
X194482500Y-42600000D01*
X191942500Y-44200000D02*
X192767500Y-44200000D01*
X192767500Y-44200000D02*
X192767500Y-42600000D01*
X191942500Y-42600000D02*
X191942500Y-44200000D01*
X192767500Y-42600000D02*
X191942500Y-42600000D01*
X182400000Y-63825000D02*
X182400000Y-66400000D01*
X182400000Y-66400000D02*
X182725000Y-66725000D01*
X182725000Y-66725000D02*
X183700000Y-66725000D01*
X183700000Y-63825000D02*
X182400000Y-63825000D01*
X183700000Y-66725000D02*
X183700000Y-63825000D01*
X187350000Y-66150000D02*
X188750000Y-66150000D01*
X188750000Y-66150000D02*
X188750000Y-64350000D01*
X188050000Y-65550000D02*
X188050000Y-65750000D01*
X188050000Y-65550000D02*
X188400000Y-65050000D01*
X188400000Y-65550000D02*
X187700000Y-65550000D01*
X187700000Y-65050000D02*
X188050000Y-65550000D01*
X188050000Y-65050000D02*
X188050000Y-64800000D01*
X188400000Y-65050000D02*
X187700000Y-65050000D01*
X187350000Y-64350000D02*
X187350000Y-66150000D01*
X188750000Y-64350000D02*
X187350000Y-64350000D01*
X204612500Y-30300000D02*
X207187500Y-30300000D01*
X207187500Y-30300000D02*
X207512500Y-29975000D01*
X207512500Y-29975000D02*
X207512500Y-29000000D01*
X204612500Y-29000000D02*
X204612500Y-30300000D01*
X207512500Y-29000000D02*
X204612500Y-29000000D01*
X182400000Y-81975000D02*
X182400000Y-84550000D01*
X182400000Y-84550000D02*
X182725000Y-84875000D01*
X182725000Y-84875000D02*
X183700000Y-84875000D01*
X183700000Y-81975000D02*
X182400000Y-81975000D01*
X183700000Y-84875000D02*
X183700000Y-81975000D01*
X200172500Y-30300000D02*
X202747500Y-30300000D01*
X202747500Y-30300000D02*
X203072500Y-29975000D01*
X203072500Y-29975000D02*
X203072500Y-29000000D01*
X200172500Y-29000000D02*
X200172500Y-30300000D01*
X203072500Y-29000000D02*
X200172500Y-29000000D01*
X187350000Y-84400000D02*
X188750000Y-84400000D01*
X188750000Y-84400000D02*
X188750000Y-82600000D01*
X188050000Y-83800000D02*
X188050000Y-84000000D01*
X188050000Y-83800000D02*
X188400000Y-83300000D01*
X188400000Y-83800000D02*
X187700000Y-83800000D01*
X187700000Y-83300000D02*
X188050000Y-83800000D01*
X188050000Y-83300000D02*
X188050000Y-83050000D01*
X188400000Y-83300000D02*
X187700000Y-83300000D01*
X187350000Y-82600000D02*
X187350000Y-84400000D01*
X188750000Y-82600000D02*
X187350000Y-82600000D01*
X197022500Y-44200000D02*
X197847500Y-44200000D01*
X197847500Y-44200000D02*
X197847500Y-42600000D01*
X197022500Y-42600000D02*
X197022500Y-44200000D01*
X197847500Y-42600000D02*
X197022500Y-42600000D01*
X179887500Y-66075000D02*
X180712500Y-66075000D01*
X180712500Y-66075000D02*
X180712500Y-64475000D01*
X179887500Y-64475000D02*
X179887500Y-66075000D01*
X180712500Y-64475000D02*
X179887500Y-64475000D01*
X186862500Y-44200000D02*
X187687500Y-44200000D01*
X187687500Y-44200000D02*
X187687500Y-42600000D01*
X186862500Y-42600000D02*
X186862500Y-44200000D01*
X187687500Y-42600000D02*
X186862500Y-42600000D01*
X189402500Y-44200000D02*
X190227500Y-44200000D01*
X190227500Y-44200000D02*
X190227500Y-42600000D01*
X189402500Y-42600000D02*
X189402500Y-44200000D01*
X190227500Y-42600000D02*
X189402500Y-42600000D01*
X216827500Y-44200000D02*
X217652500Y-44200000D01*
X217652500Y-44200000D02*
X217652500Y-42600000D01*
X216827500Y-42600000D02*
X216827500Y-44200000D01*
X217652500Y-42600000D02*
X216827500Y-42600000D01*
X185387500Y-84225000D02*
X186212500Y-84225000D01*
X186212500Y-84225000D02*
X186212500Y-82625000D01*
X185387500Y-82625000D02*
X185387500Y-84225000D01*
X186212500Y-82625000D02*
X185387500Y-82625000D01*
X185387500Y-66075000D02*
X186212500Y-66075000D01*
X186212500Y-66075000D02*
X186212500Y-64475000D01*
X185387500Y-64475000D02*
X185387500Y-66075000D01*
X186212500Y-64475000D02*
X185387500Y-64475000D01*
X202102500Y-44200000D02*
X202927500Y-44200000D01*
X202927500Y-44200000D02*
X202927500Y-42600000D01*
X202102500Y-42600000D02*
X202102500Y-44200000D01*
X202927500Y-42600000D02*
X202102500Y-42600000D01*
X180712500Y-82625000D02*
X179887500Y-82625000D01*
X179887500Y-82625000D02*
X179887500Y-84225000D01*
X180712500Y-84225000D02*
X180712500Y-82625000D01*
X179887500Y-84225000D02*
X180712500Y-84225000D01*
X214287500Y-44200000D02*
X215112500Y-44200000D01*
X215112500Y-44200000D02*
X215112500Y-42600000D01*
X214287500Y-42600000D02*
X214287500Y-44200000D01*
X215112500Y-42600000D02*
X214287500Y-42600000D01*
X204642500Y-44200000D02*
X205467500Y-44200000D01*
X205467500Y-44200000D02*
X205467500Y-42600000D01*
X204642500Y-42600000D02*
X204642500Y-44200000D01*
X205467500Y-42600000D02*
X204642500Y-42600000D01*
X199562500Y-44200000D02*
X200387500Y-44200000D01*
X200387500Y-44200000D02*
X200387500Y-42600000D01*
X199562500Y-42600000D02*
X199562500Y-44200000D01*
X200387500Y-42600000D02*
X199562500Y-42600000D01*
M02*
