G04 #@! TF.GenerationSoftware,KiCad,Pcbnew,(6.99.0-2815-gbbc0c61ccb)*
G04 #@! TF.CreationDate,2022-08-18T14:12:31+07:00*
G04 #@! TF.ProjectId,Training_Based,54726169-6e69-46e6-975f-42617365642e,rev?*
G04 #@! TF.SameCoordinates,Original*
G04 #@! TF.FileFunction,Paste,Top*
G04 #@! TF.FilePolarity,Positive*
%FSLAX46Y46*%
G04 Gerber Fmt 4.6, Leading zero omitted, Abs format (unit mm)*
G04 Created by KiCad (PCBNEW (6.99.0-2815-gbbc0c61ccb)) date 2022-08-18 14:12:31*
%MOMM*%
%LPD*%
G01*
G04 APERTURE LIST*
G04 Aperture macros list*
%AMRoundRect*
0 Rectangle with rounded corners*
0 $1 Rounding radius*
0 $2 $3 $4 $5 $6 $7 $8 $9 X,Y pos of 4 corners*
0 Add a 4 corners polygon primitive as box body*
4,1,4,$2,$3,$4,$5,$6,$7,$8,$9,$2,$3,0*
0 Add four circle primitives for the rounded corners*
1,1,$1+$1,$2,$3*
1,1,$1+$1,$4,$5*
1,1,$1+$1,$6,$7*
1,1,$1+$1,$8,$9*
0 Add four rect primitives between the rounded corners*
20,1,$1+$1,$2,$3,$4,$5,0*
20,1,$1+$1,$4,$5,$6,$7,0*
20,1,$1+$1,$6,$7,$8,$9,0*
20,1,$1+$1,$8,$9,$2,$3,0*%
G04 Aperture macros list end*
%ADD10RoundRect,0.200000X0.200000X0.275000X-0.200000X0.275000X-0.200000X-0.275000X0.200000X-0.275000X0*%
%ADD11RoundRect,0.250000X0.625000X-0.375000X0.625000X0.375000X-0.625000X0.375000X-0.625000X-0.375000X0*%
%ADD12RoundRect,0.200000X-0.275000X0.200000X-0.275000X-0.200000X0.275000X-0.200000X0.275000X0.200000X0*%
%ADD13RoundRect,0.200000X-0.200000X-0.275000X0.200000X-0.275000X0.200000X0.275000X-0.200000X0.275000X0*%
%ADD14RoundRect,0.225000X0.225000X0.250000X-0.225000X0.250000X-0.225000X-0.250000X0.225000X-0.250000X0*%
%ADD15RoundRect,0.150000X0.150000X-0.587500X0.150000X0.587500X-0.150000X0.587500X-0.150000X-0.587500X0*%
%ADD16RoundRect,0.225000X0.250000X-0.225000X0.250000X0.225000X-0.250000X0.225000X-0.250000X-0.225000X0*%
%ADD17RoundRect,0.200000X0.275000X-0.200000X0.275000X0.200000X-0.275000X0.200000X-0.275000X-0.200000X0*%
%ADD18RoundRect,0.250000X-0.375000X-0.625000X0.375000X-0.625000X0.375000X0.625000X-0.375000X0.625000X0*%
%ADD19RoundRect,0.250000X1.500000X0.550000X-1.500000X0.550000X-1.500000X-0.550000X1.500000X-0.550000X0*%
%ADD20RoundRect,0.150000X0.512500X0.150000X-0.512500X0.150000X-0.512500X-0.150000X0.512500X-0.150000X0*%
%ADD21RoundRect,0.250000X-0.625000X0.375000X-0.625000X-0.375000X0.625000X-0.375000X0.625000X0.375000X0*%
%ADD22R,1.000000X2.700000*%
%ADD23R,2.000000X0.500000*%
%ADD24R,1.700000X2.000000*%
%ADD25RoundRect,0.250000X1.075000X-0.375000X1.075000X0.375000X-1.075000X0.375000X-1.075000X-0.375000X0*%
%ADD26RoundRect,0.225000X-0.250000X0.225000X-0.250000X-0.225000X0.250000X-0.225000X0.250000X0.225000X0*%
%ADD27RoundRect,0.225000X-0.225000X-0.250000X0.225000X-0.250000X0.225000X0.250000X-0.225000X0.250000X0*%
%ADD28R,0.700000X0.450000*%
G04 APERTURE END LIST*
D10*
X155689286Y-37000000D03*
X154039286Y-37000000D03*
D11*
X150578572Y-26750000D03*
X150578572Y-23950000D03*
D12*
X167721428Y-29075000D03*
X167721428Y-30725000D03*
D10*
X31425000Y-136900000D03*
X29775000Y-136900000D03*
D13*
X102575000Y-142983333D03*
X104225000Y-142983333D03*
D14*
X44625000Y-150400000D03*
X43075000Y-150400000D03*
D11*
X176292856Y-26750000D03*
X176292856Y-23950000D03*
X188050000Y-84845000D03*
X188050000Y-82045000D03*
D10*
X172832142Y-37000000D03*
X171182142Y-37000000D03*
D15*
X153914286Y-34937500D03*
X155814286Y-34937500D03*
X154864286Y-33062500D03*
D11*
X163435714Y-26750000D03*
X163435714Y-23950000D03*
D15*
X175342856Y-34937500D03*
X177242856Y-34937500D03*
X176292856Y-33062500D03*
D12*
X163435714Y-29075000D03*
X163435714Y-30725000D03*
D10*
X41575000Y-148800000D03*
X39925000Y-148800000D03*
D11*
X172007142Y-26750000D03*
X172007142Y-23950000D03*
D16*
X66490000Y-67175000D03*
X66490000Y-65625000D03*
D10*
X125625000Y-37150000D03*
X123975000Y-37150000D03*
D15*
X162485714Y-34937500D03*
X164385714Y-34937500D03*
X163435714Y-33062500D03*
D13*
X92975000Y-116525000D03*
X94625000Y-116525000D03*
D17*
X61900000Y-86409999D03*
X61900000Y-84759999D03*
D18*
X33770000Y-136900000D03*
X36570000Y-136900000D03*
D10*
X100825000Y-142983333D03*
X99175000Y-142983333D03*
X151403572Y-37000000D03*
X149753572Y-37000000D03*
D15*
X149628572Y-34937500D03*
X151528572Y-34937500D03*
X150578572Y-33062500D03*
D19*
X46800000Y-139200000D03*
X41400000Y-139200000D03*
D13*
X92975000Y-121605000D03*
X94625000Y-121605000D03*
D11*
X154864286Y-26750000D03*
X154864286Y-23950000D03*
D16*
X48550000Y-146775000D03*
X48550000Y-145225000D03*
D13*
X82575000Y-142983333D03*
X84225000Y-142983333D03*
D19*
X46800000Y-131700000D03*
X41400000Y-131700000D03*
D11*
X180578572Y-26750000D03*
X180578572Y-23950000D03*
D18*
X80320000Y-140600000D03*
X83120000Y-140600000D03*
D20*
X42337500Y-146950000D03*
X42337500Y-146000000D03*
X42337500Y-145050000D03*
X40062500Y-145050000D03*
X40062500Y-146950000D03*
D10*
X181403572Y-37000000D03*
X179753572Y-37000000D03*
D12*
X172007142Y-29075000D03*
X172007142Y-30725000D03*
D21*
X188050000Y-63895000D03*
X188050000Y-66695000D03*
D13*
X92975000Y-119065000D03*
X94625000Y-119065000D03*
D10*
X159975000Y-37000000D03*
X158325000Y-37000000D03*
D22*
X44399999Y-146049999D03*
X46599999Y-146049999D03*
D15*
X179628572Y-34937500D03*
X181528572Y-34937500D03*
X180578572Y-33062500D03*
D10*
X177117856Y-37000000D03*
X175467856Y-37000000D03*
D12*
X68100000Y-65575000D03*
X68100000Y-67225000D03*
D23*
X30174999Y-143149999D03*
X30174999Y-143949999D03*
X30174999Y-144749999D03*
X30174999Y-145549999D03*
X30174999Y-146349999D03*
D24*
X30074999Y-140299999D03*
X24624999Y-140299999D03*
X30074999Y-149199999D03*
X24624999Y-149199999D03*
D12*
X176292856Y-29075000D03*
X176292856Y-30725000D03*
D25*
X34400000Y-146000000D03*
X34400000Y-143200000D03*
D26*
X48600000Y-106550000D03*
X48600000Y-108100000D03*
D27*
X76025000Y-58775000D03*
X77575000Y-58775000D03*
D11*
X167721428Y-26750000D03*
X167721428Y-23950000D03*
D15*
X171057142Y-34937500D03*
X172957142Y-34937500D03*
X172007142Y-33062500D03*
D10*
X168546428Y-37000000D03*
X166896428Y-37000000D03*
D12*
X159150000Y-29075000D03*
X159150000Y-30725000D03*
X150578572Y-29075000D03*
X150578572Y-30725000D03*
D15*
X158200000Y-34937500D03*
X160100000Y-34937500D03*
X159150000Y-33062500D03*
X166771428Y-34937500D03*
X168671428Y-34937500D03*
X167721428Y-33062500D03*
D12*
X180578572Y-29075000D03*
X180578572Y-30725000D03*
D10*
X80825000Y-142983333D03*
X79175000Y-142983333D03*
D11*
X159150000Y-26750000D03*
X159150000Y-23950000D03*
D15*
X123850000Y-35137500D03*
X125750000Y-35137500D03*
X124800000Y-33262500D03*
D26*
X37700000Y-145125000D03*
X37700000Y-146675000D03*
D10*
X143775000Y-37150000D03*
X142125000Y-37150000D03*
D28*
X46979999Y-115149999D03*
X46979999Y-116449999D03*
X48979999Y-115799999D03*
D18*
X100320000Y-140600000D03*
X103120000Y-140600000D03*
D12*
X154864286Y-29075000D03*
X154864286Y-30725000D03*
D10*
X164260714Y-37000000D03*
X162610714Y-37000000D03*
X44675000Y-148800000D03*
X43025000Y-148800000D03*
D12*
X61900000Y-81329999D03*
X61900000Y-82979999D03*
D15*
X142000000Y-35137500D03*
X143900000Y-35137500D03*
X142950000Y-33262500D03*
M02*
