M48
; DRILL file {KiCad (6.99.0-2225-g61f71e0814)} date Tue Aug  9 19:58:37 2022
; FORMAT={-:-/ absolute / metric / decimal}
; #@! TF.CreationDate,2022-08-09T19:58:37+07:00
; #@! TF.GenerationSoftware,Kicad,Pcbnew,(6.99.0-2225-g61f71e0814)
; #@! TF.FileFunction,Plated,1,2,PTH
FMAT,2
METRIC
; #@! TA.AperFunction,Plated,PTH,ViaDrill
T1C0.300
; #@! TA.AperFunction,Plated,PTH,ViaDrill
T2C0.400
; #@! TA.AperFunction,Plated,PTH,ComponentDrill
T3C0.500
; #@! TA.AperFunction,Plated,PTH,ComponentDrill
T4C0.800
; #@! TA.AperFunction,Plated,PTH,ComponentDrill
T5C0.900
; #@! TA.AperFunction,Plated,PTH,ComponentDrill
T6C1.000
; #@! TA.AperFunction,Plated,PTH,ComponentDrill
T7C1.016
; #@! TA.AperFunction,Plated,PTH,ComponentDrill
T8C1.100
; #@! TA.AperFunction,Plated,PTH,ComponentDrill
T9C1.200
; #@! TA.AperFunction,Plated,PTH,ComponentDrill
T10C1.300
; #@! TA.AperFunction,Plated,PTH,ComponentDrill
T11C1.500
; #@! TA.AperFunction,Plated,PTH,ComponentDrill
T12C3.200
%
G90
G05
T1
X20.525Y-33.625
X20.525Y-44.066
X20.525Y-54.507
X20.525Y-64.948
X20.525Y-75.389
X20.525Y-85.83
X20.525Y-96.27
X20.525Y-106.711
X20.525Y-117.152
X20.525Y-127.593
X20.525Y-138.034
X20.525Y-148.475
X22.65Y-132.025
X28.55Y-133.475
X29.15Y-159.4
X30.1Y-20.575
X32.125Y-129.725
X32.25Y-144.475
X32.25Y-148.175
X33.85Y-141.375
X34.05Y-133.475
X34.45Y-139.075
X35.925Y-129.8
X37.411Y-159.4
X37.7Y-131.575
X38.361Y-20.575
X38.65Y-142.975
X43.228Y-146.153
X43.95Y-133.375
X44.55Y-143.375
X45.671Y-159.4
X46.621Y-20.575
X47.925Y-135.975
X49.7Y-115.8
X53.932Y-159.4
X54.882Y-20.575
X61.9Y-83.825
X62.193Y-159.4
X62.55Y-26.075
X63.143Y-20.575
X65.5Y-67.2
X70.454Y-159.4
X71.404Y-20.575
X76.75Y-57.075
X78.714Y-159.4
X79.664Y-20.575
X82.575Y-143.875
X84.392Y-141.983
X85.55Y-37.575
X85.55Y-39.575
X86.975Y-159.4
X87.925Y-20.575
X90.85Y-26.275
X92.55Y-39.575
X93.4Y-122.7
X94.125Y-125.6
X94.75Y-133.775
X94.95Y-141.075
X95.05Y-123.425
X95.236Y-159.4
X95.55Y-128.775
X96.186Y-20.575
X98.65Y-141.175
X101.35Y-128.775
X102.55Y-143.85
X103.496Y-159.4
X104.446Y-20.575
X105.2Y-142.9
X111.757Y-159.4
X112.707Y-20.575
X120.018Y-159.4
X120.968Y-20.575
X121.15Y-151.975
X125.7Y-38.3
X128.279Y-159.4
X129.229Y-20.575
X130.65Y-152.075
X137.15Y-114.875
X137.275Y-121.925
X137.489Y-20.575
X138.1Y-157.175
X143.75Y-38.175
X144.956Y-157.175
X145.75Y-20.575
X147.25Y-113.875
X147.25Y-121.875
X148.75Y-23.875
X151.812Y-157.175
X156.65Y-115.175
X156.65Y-120.375
X158.669Y-157.175
X165.525Y-157.175
X172.381Y-157.175
X173.2Y-125.4
X179.237Y-157.175
X186.094Y-157.175
X187.2Y-65.3
X187.7Y-83.169
X188.55Y-41.375
X188.6Y-28.725
X188.912Y-68.112
X189.95Y-82.375
X190.7Y-28.0
X191.2Y-37.775
X191.25Y-27.2
X192.4Y-28.875
X192.45Y-35.875
X192.95Y-157.175
X193.575Y-36.8
X193.7Y-25.55
X194.95Y-33.875
X194.95Y-36.875
X196.05Y-30.175
X196.05Y-32.875
X196.15Y-35.875
X197.5Y-37.75
X197.55Y-27.2
X197.575Y-34.9
X197.6Y-30.15
X197.75Y-32.875
X198.775Y-28.9
X198.875Y-115.05
X200.05Y-27.975
X200.05Y-34.975
X200.75Y-31.975
X201.225Y-115.075
X201.25Y-33.975
X202.575Y-35.875
X203.75Y-30.15
X203.85Y-34.975
X203.875Y-25.6
X205.05Y-36.875
X205.45Y-31.775
X206.425Y-36.3
X207.65Y-33.975
X207.675Y-28.925
X210.15Y-37.775
X210.175Y-27.2
X210.25Y-33.675
X211.55Y-37.775
X212.65Y-34.975
X212.725Y-27.975
X215.85Y-41.475
X215.95Y-33.475
T2
X34.4Y-148.0
X34.4Y-149.0
X36.4Y-133.5
X36.4Y-134.8
X63.7Y-82.7
X63.7Y-85.5
X178.3Y-117.6
X178.3Y-120.4
X178.3Y-125.4
X178.3Y-127.95
X178.3Y-130.5
X178.3Y-133.05
X178.3Y-135.6
X192.9Y-117.1
X198.8Y-155.3
X201.3Y-155.3
X203.8Y-155.3
X205.1Y-114.5
X206.3Y-155.3
X206.6Y-119.0
X208.775Y-125.35
X208.8Y-155.3
X209.1Y-119.1
X211.3Y-155.3
T3
X21.6Y-24.0
X21.6Y-156.0
X22.303Y-22.303
X22.303Y-25.697
X22.303Y-154.303
X22.303Y-157.697
X24.0Y-21.6
X24.0Y-26.4
X24.0Y-153.6
X24.0Y-158.4
X25.697Y-22.303
X25.697Y-25.697
X25.697Y-154.303
X25.697Y-157.697
X26.4Y-24.0
X26.4Y-156.0
X223.6Y-24.0
X223.6Y-156.0
X224.303Y-22.303
X224.303Y-25.697
X224.303Y-154.303
X224.303Y-157.697
X226.0Y-21.6
X226.0Y-26.4
X226.0Y-153.6
X226.0Y-158.4
X227.697Y-22.303
X227.697Y-25.697
X227.697Y-154.303
X227.697Y-157.697
X228.4Y-24.0
X228.4Y-156.0
T4
X35.77Y-81.33
X35.77Y-86.41
X38.82Y-119.005
X38.87Y-122.505
X45.93Y-81.33
X45.93Y-86.41
X48.98Y-119.005
X49.03Y-122.505
X50.6Y-81.33
X50.6Y-83.87
X50.6Y-86.41
X50.6Y-88.95
X55.35Y-54.75
X58.22Y-81.33
X58.22Y-83.87
X58.22Y-86.41
X58.22Y-88.95
X58.75Y-54.75
T5
X68.375Y-58.775
X70.915Y-58.775
X73.455Y-58.775
T6
X41.18Y-28.125
X43.11Y-34.01
X43.11Y-36.55
X43.72Y-28.125
X45.65Y-34.01
X45.65Y-36.55
X46.26Y-28.125
X48.8Y-28.125
X51.85Y-106.55
X51.85Y-109.09
X51.95Y-130.56
X51.95Y-133.1
X51.95Y-138.21
X51.95Y-140.75
X51.95Y-145.86
X51.95Y-148.4
X54.39Y-106.55
X54.39Y-109.09
X54.49Y-130.56
X54.49Y-133.1
X54.49Y-138.21
X54.49Y-140.75
X54.49Y-145.86
X54.49Y-148.4
X57.03Y-130.56
X57.03Y-133.1
X57.03Y-138.21
X57.03Y-140.75
X57.03Y-145.86
X57.03Y-148.4
X59.57Y-130.56
X59.57Y-133.1
X59.57Y-138.21
X59.57Y-140.75
X59.57Y-145.86
X59.57Y-148.4
X62.11Y-130.56
X62.11Y-133.1
X62.11Y-138.21
X62.11Y-140.75
X62.11Y-145.86
X62.11Y-148.4
X66.0Y-70.15
X66.0Y-72.69
X66.0Y-75.23
X66.0Y-83.88
X66.0Y-86.42
X68.54Y-70.15
X68.54Y-72.69
X68.54Y-75.23
X68.54Y-83.88
X68.54Y-86.42
X79.75Y-112.85
X79.75Y-127.35
X82.25Y-127.35
X84.75Y-112.85
X84.75Y-127.35
X94.61Y-38.26
X94.61Y-40.8
X97.15Y-38.26
X97.15Y-40.8
X97.21Y-116.525
X97.21Y-119.065
X97.21Y-121.605
X97.21Y-124.145
X97.21Y-126.685
X99.75Y-116.525
X99.75Y-119.065
X99.75Y-121.605
X99.75Y-124.145
X99.75Y-126.685
X114.1Y-28.0
X115.75Y-108.896
X115.75Y-111.436
X115.75Y-113.976
X115.75Y-116.516
X115.75Y-119.056
X115.75Y-121.596
X115.75Y-124.136
X115.75Y-126.676
X115.75Y-129.216
X115.75Y-131.756
X115.75Y-134.296
X115.75Y-136.836
X115.75Y-139.376
X115.75Y-141.916
X115.75Y-144.456
X115.75Y-146.996
X115.75Y-149.536
X115.75Y-152.076
X115.75Y-154.616
X119.35Y-108.896
X119.35Y-111.436
X119.35Y-113.976
X119.35Y-116.516
X119.35Y-119.056
X119.35Y-121.596
X119.35Y-124.136
X119.35Y-126.676
X119.35Y-129.216
X119.35Y-131.756
X119.35Y-134.296
X119.35Y-136.836
X119.35Y-139.376
X119.35Y-141.916
X119.35Y-144.456
X119.35Y-146.996
X119.35Y-149.536
X119.35Y-152.076
X119.35Y-154.616
X121.7Y-28.0
X129.91Y-38.6
X129.91Y-41.14
X131.95Y-28.0
X132.45Y-38.6
X132.45Y-41.14
X132.818Y-108.896
X132.818Y-111.436
X132.818Y-113.976
X132.818Y-116.516
X132.818Y-119.081
X132.818Y-121.621
X132.818Y-124.161
X132.818Y-126.701
X132.818Y-129.241
X132.818Y-131.781
X132.818Y-134.321
X132.818Y-136.861
X132.818Y-139.401
X132.818Y-141.941
X132.818Y-144.481
X132.818Y-147.021
X132.818Y-149.561
X132.818Y-152.101
X132.818Y-154.641
X139.55Y-28.0
X156.823Y-42.2
X158.118Y-108.896
X158.118Y-111.436
X158.118Y-113.976
X158.118Y-116.516
X158.118Y-119.081
X158.118Y-121.621
X158.118Y-124.161
X158.118Y-126.701
X158.118Y-129.241
X158.118Y-131.781
X158.118Y-134.321
X158.118Y-136.861
X158.118Y-139.401
X158.118Y-141.941
X158.118Y-144.481
X158.118Y-147.021
X158.118Y-149.561
X158.118Y-152.101
X158.118Y-154.641
X159.363Y-42.2
X161.903Y-42.2
X164.443Y-42.2
X166.983Y-42.2
X169.523Y-42.2
X171.6Y-108.896
X171.6Y-111.436
X171.6Y-113.976
X171.6Y-116.516
X171.6Y-119.056
X171.6Y-121.596
X171.6Y-124.136
X171.6Y-126.676
X171.6Y-129.216
X171.6Y-131.756
X171.6Y-134.296
X171.6Y-136.836
X171.6Y-139.376
X171.6Y-141.916
X171.6Y-144.456
X171.6Y-146.996
X171.6Y-149.536
X171.6Y-152.076
X171.6Y-154.616
X172.063Y-42.2
X174.603Y-42.2
X175.25Y-108.896
X175.25Y-111.436
X175.25Y-113.976
X175.25Y-116.516
X175.25Y-119.056
X175.25Y-121.596
X175.25Y-124.136
X175.25Y-126.676
X175.25Y-129.216
X175.25Y-131.756
X175.25Y-134.296
X175.25Y-136.836
X175.25Y-139.376
X175.25Y-141.916
X175.25Y-144.456
X175.25Y-146.996
X175.25Y-149.536
X175.25Y-152.076
X175.25Y-154.616
X185.01Y-73.385
X185.01Y-75.925
X187.275Y-46.71
X187.275Y-49.25
X187.55Y-73.385
X187.55Y-75.925
X189.815Y-46.71
X189.815Y-49.25
X192.355Y-46.71
X192.355Y-49.25
X192.412Y-24.348
X192.412Y-39.587
X194.76Y-102.712
X194.76Y-105.252
X194.895Y-46.71
X194.895Y-49.25
X194.952Y-24.348
X194.952Y-39.587
X195.025Y-117.075
X195.025Y-157.175
X197.3Y-102.712
X197.3Y-105.252
X197.435Y-46.71
X197.435Y-49.25
X197.492Y-24.348
X197.492Y-39.587
X197.565Y-117.075
X197.565Y-157.175
X199.975Y-46.71
X199.975Y-49.25
X200.032Y-24.348
X200.032Y-39.587
X200.105Y-117.075
X200.105Y-157.175
X202.515Y-46.71
X202.515Y-49.25
X202.572Y-24.348
X202.572Y-39.587
X202.645Y-117.075
X202.645Y-157.175
X205.055Y-46.71
X205.055Y-49.25
X205.112Y-24.348
X205.112Y-39.587
X205.185Y-117.075
X205.185Y-157.175
X207.653Y-24.348
X207.653Y-39.587
X207.725Y-117.075
X207.725Y-157.175
X210.192Y-24.348
X210.192Y-39.587
X210.265Y-117.075
X210.265Y-157.175
X212.732Y-24.348
X212.732Y-39.587
X212.805Y-117.075
X212.805Y-157.175
X212.852Y-96.612
X212.852Y-99.152
X212.852Y-101.692
X212.902Y-106.312
X212.902Y-108.852
X212.902Y-111.392
X214.7Y-46.71
X214.7Y-49.25
X217.24Y-46.71
X217.24Y-49.25
T7
X44.2Y-56.06
X44.2Y-58.6
X44.2Y-61.14
X81.688Y-36.15
X84.237Y-36.15
X86.757Y-36.15
X89.297Y-36.15
T8
X78.45Y-145.5
X78.45Y-150.0
X84.95Y-145.5
X84.95Y-150.0
X98.45Y-145.5
X98.45Y-150.0
X104.95Y-145.5
X104.95Y-150.0
T9
X29.8Y-99.8
X29.8Y-104.8
X29.8Y-109.8
X30.15Y-78.405
X30.15Y-81.905
X30.15Y-88.355
X30.15Y-91.855
X30.633Y-119.005
X30.633Y-122.505
X220.35Y-61.72
X220.35Y-65.22
X220.35Y-68.72
X220.35Y-79.87
X220.35Y-83.37
X220.35Y-86.87
T10
X194.1Y-83.425
X194.25Y-65.275
X196.1Y-77.425
X196.1Y-89.425
X196.25Y-59.275
X196.25Y-71.275
X208.3Y-77.425
X208.3Y-89.425
X208.45Y-59.275
X208.45Y-71.275
T12
X24.0Y-24.0
X24.0Y-156.0
X226.0Y-24.0
X226.0Y-156.0
T11
X76.65Y-120.5G85X76.65Y-119.2
G05
X87.85Y-120.5G85X87.85Y-119.2
G05
T0
M30
